<svg width="636" height="447" viewBox="0 0 636 447" fill="none" xmlns="http://www.w3.org/2000/svg">
<g clip-path="url(#clip0_421_2)">
<path d="M582.183 38.4409C581.187 34.592 579.656 30.9494 577.688 27.5983L582.268 20.7139L575.914 14.3637L569.561 8.01358L562.673 12.591C559.32 10.6241 555.687 9.0942 551.824 8.09857L550.196 0H532.229L530.601 8.09857C526.75 9.0942 523.106 10.6241 519.753 12.591L512.865 8.01358L506.511 14.3637L500.158 20.7139L504.737 27.5983C502.769 30.9494 501.239 34.5798 500.243 38.4409L492.14 40.0679V58.0256L500.243 59.6526C501.239 63.5016 502.769 67.1441 504.737 70.4952L500.158 77.3796L506.511 83.7298L512.865 90.0799L519.753 85.5025C523.106 87.4695 526.738 88.9993 530.601 89.995L532.229 98.0935H550.196L551.824 89.995C555.675 88.9993 559.32 87.4695 562.673 85.5025L569.561 90.0799L575.914 83.7298L582.268 77.3796L577.688 70.4952C579.656 67.1441 581.187 63.5137 582.183 59.6526L590.286 58.0256V40.0679L582.183 38.4409ZM541.207 80.5244C523.822 80.5244 509.718 66.4399 509.718 49.0528C509.718 31.6658 523.81 17.5813 541.207 17.5813C558.603 17.5813 572.695 31.6658 572.695 49.0528C572.695 66.4399 558.603 80.5244 541.207 80.5244Z" fill="#73C0FF"/>
<path d="M594.44 114.825C593.979 113.052 593.286 111.389 592.375 109.859L594.477 106.702L591.561 103.788L588.646 100.874L585.487 102.975C583.956 102.064 582.28 101.372 580.518 100.91L579.765 97.1951H571.529L570.776 100.91C569.002 101.372 567.338 102.064 565.807 102.975L562.648 100.874L559.733 103.788L556.817 106.702L558.919 109.859C558.008 111.389 557.315 113.064 556.854 114.825L553.136 115.578V123.81L556.854 124.563C557.315 126.335 558.008 127.999 558.919 129.529L556.817 132.686L559.733 135.6L562.648 138.514L565.807 136.413C567.338 137.324 569.014 138.016 570.776 138.477L571.529 142.193H579.765L580.518 138.477C582.292 138.016 583.956 137.324 585.487 136.413L588.646 138.514L591.561 135.6L594.477 132.686L592.375 129.529C593.286 127.999 593.979 126.323 594.44 124.563L598.158 123.81V115.578L594.44 114.825ZM575.659 134.118C567.69 134.118 561.227 127.659 561.227 119.694C561.227 111.729 567.69 105.269 575.659 105.269C583.628 105.269 590.091 111.729 590.091 119.694C590.091 127.659 583.628 134.118 575.659 134.118Z" fill="#73C0FF"/>
<path d="M333.325 400.958H377.533V266.755H333.325V400.958Z" fill="#4DA8F2"/>
<path d="M526.884 331.41L183.986 331.41C173.271 331.41 164.573 322.717 164.573 312.008L164.573 81.6778C164.573 70.9688 173.271 62.2752 183.986 62.2752L526.884 62.2752C537.599 62.2752 546.297 70.9688 546.297 81.6778V312.008C546.297 322.717 537.599 331.41 526.884 331.41Z" fill="#B5DEFF"/>
<path d="M179.515 289.229L531.342 289.229V33.6205L179.515 33.6205L179.515 289.229Z" fill="white"/>
<path d="M179.515 64.4851L531.342 64.4851V33.6085L179.515 33.6085V64.4851Z" fill="url(#paint0_linear_421_2)"/>
<path d="M343.117 308.535C343.117 315.334 348.632 320.847 355.435 320.847C362.238 320.847 367.741 315.334 367.741 308.535C367.741 301.736 362.226 296.223 355.435 296.223C348.644 296.223 343.117 301.736 343.117 308.535Z" fill="#4DA8F2"/>
<path d="M403.348 95.6045L298.265 95.6045C295.908 95.6045 293.989 93.6861 293.989 91.3306V90.7235C293.989 88.368 295.908 86.4496 298.265 86.4496L403.348 86.4496C405.705 86.4496 407.624 88.368 407.624 90.7235V91.3306C407.624 93.6861 405.705 95.6045 403.348 95.6045V95.6045Z" fill="#DFE1E8"/>
<path d="M403.348 112.093L298.265 112.093C295.908 112.093 293.989 110.175 293.989 107.819V107.212C293.989 104.857 295.908 102.938 298.265 102.938L403.348 102.938C405.705 102.938 407.624 104.857 407.624 107.212V107.819C407.624 110.175 405.705 112.093 403.348 112.093V112.093Z" fill="#DFE1E8"/>
<path d="M403.348 128.594H298.265C295.908 128.594 293.989 126.675 293.989 124.32V123.713C293.989 121.357 295.908 119.439 298.265 119.439L403.348 119.439C405.705 119.439 407.624 121.357 407.624 123.713V124.32C407.624 126.675 405.705 128.594 403.348 128.594V128.594Z" fill="#DFE1E8"/>
<path d="M347.636 271.247H215.754C204.759 271.247 195.806 262.311 195.806 251.311V171.126C195.806 160.138 204.747 151.189 215.754 151.189H347.636C358.63 151.189 367.583 160.126 367.583 171.126V251.311C367.583 262.299 358.642 271.247 347.636 271.247V271.247ZM215.754 153.703C206.132 153.703 198.309 161.522 198.309 171.138V251.323C198.309 260.939 206.132 268.758 215.754 268.758H347.636C357.257 268.758 365.081 260.939 365.081 251.323V171.138C365.081 161.522 357.257 153.703 347.636 153.703H215.754V153.703Z" fill="#DFE1E8"/>
<path d="M226.177 181.41L337.2 181.41C342.065 181.41 346.008 177.469 346.008 172.608V170.932C346.008 166.07 342.065 162.129 337.2 162.129H226.177C221.313 162.129 217.369 166.07 217.369 170.932V172.608C217.369 177.469 221.313 181.41 226.177 181.41Z" fill="#DFE1E8"/>
<path d="M454.881 395.895H256.001V406.022H454.881V395.895Z" fill="#B5DEFF"/>
<path d="M491.775 177.549C491.775 188.088 486.078 197.292 477.598 202.258C475.898 203.254 474.075 204.079 472.168 204.711C471.998 204.771 471.828 204.82 471.646 204.881C468.961 205.718 466.106 206.168 463.142 206.168C458.574 206.168 454.249 205.099 450.423 203.193C440.996 198.506 434.521 188.793 434.521 177.562C434.521 161.765 447.337 148.943 463.154 148.943C478.971 148.943 491.775 161.753 491.775 177.562V177.549Z" fill="#EEF0F7"/>
<path d="M456.315 174.526C456.315 174.526 454.359 161.886 464.831 162.117C475.302 162.348 475.169 168.601 474.974 174.805C474.792 181.01 470.771 180.548 475.302 189.169C479.834 197.802 471.378 197.802 471.378 197.802L464.818 188.793L456.302 174.514L456.315 174.526Z" fill="#3C4145"/>
<path d="M463.688 163.331C463.688 163.331 456.594 164.448 456.314 174.526C456.035 184.604 458.234 186.753 464.442 184.652C470.649 182.552 472.605 172.013 472.751 170.374C472.897 168.747 473.261 162.117 463.701 163.331H463.688Z" fill="#EEA886"/>
<path d="M476.153 198.373C476.177 201.396 474.562 203.411 472.18 204.698C472.01 204.759 471.84 204.808 471.658 204.868C468.973 205.706 466.118 206.155 463.154 206.155C458.587 206.155 454.262 205.087 450.435 203.181C449.572 201.457 450.824 199.016 453.363 195.264C455.1 192.69 456.813 190.055 459.741 188.781C464.053 188.088 468.621 188.052 471.84 189.873C474.404 191.318 476.117 193.953 476.153 198.373Z" fill="#E55353"/>
<path d="M454.747 195.119L451.492 200.255C451.492 200.255 451.71 199.453 452.087 197.195C452.16 196.77 452.233 196.284 452.318 195.75C452.342 195.592 452.379 195.434 452.415 195.277C453.812 192.059 458.161 189.667 458.319 189.582L454.747 195.119Z" fill="#E55353"/>
<path d="M477.611 202.246C475.91 203.241 474.088 204.067 472.18 204.698C472.01 204.759 471.84 204.808 471.658 204.868C470.929 202.999 470.31 201.384 470.176 200.971C470.14 200.849 470.042 200.619 469.921 200.315C469.338 198.883 468.014 195.714 468.001 193.224C468.001 191.622 468.524 190.31 470.127 189.934C470.759 189.788 471.33 189.776 471.84 189.873C473.638 190.201 474.695 191.816 475.278 193.249C475.278 193.273 475.303 193.297 475.303 193.322C475.789 194.536 475.946 195.604 475.946 195.604C475.946 195.604 475.971 195.714 476.032 195.92C476.129 196.321 476.323 197.073 476.578 198.069C476.87 199.21 477.222 200.667 477.611 202.246V202.246Z" fill="#EEA886"/>
<path d="M468.427 180.111C467.807 181.277 467.163 188.477 467.163 188.477C467.163 188.477 458.489 191.755 459.376 189.898C459.777 189.06 459.898 187.967 459.911 187.02C459.911 186.279 459.862 185.624 459.813 185.272C459.789 185.077 459.777 184.968 459.777 184.968C459.777 184.968 469.058 178.946 468.439 180.099L468.427 180.111Z" fill="#EEA886"/>
<path d="M460.797 170.556C460.797 170.556 464.442 176.481 467.746 178.812C471.062 181.143 469.374 183.013 469.374 183.013C469.374 183.013 478.023 164.813 469.799 163.562C461.575 162.311 456.533 162.214 456.302 174.526C456.302 174.526 460.032 170.471 460.785 170.556H460.797Z" fill="#3C4145"/>
<path d="M464.758 184.531C463.422 186.498 459.911 187.02 459.911 187.02C459.911 186.279 459.862 185.624 459.813 185.272C462.073 185.709 464.758 184.531 464.758 184.531Z" fill="#A77860"/>
<path d="M452.415 195.24C452.415 195.24 452.22 195.629 452.075 197.195L453.35 195.264C453.35 195.264 455.634 191.998 456.412 191.136C457.189 190.286 458.331 189.533 458.331 189.533C458.331 189.533 453.775 191.695 452.415 195.216V195.24Z" fill="#BD4444"/>
<path d="M469.69 200.109C469.69 200.109 475.266 197.923 476.906 197.802C476.906 197.802 475.788 188.866 470.31 189.813C464.831 190.76 469.678 200.109 469.678 200.109H469.69Z" fill="#E55353"/>
<path d="M459.728 188.781C459.728 188.781 455.635 195.07 457.019 195.616C458.404 196.163 465.9 194.888 469.083 188.914C469.083 188.914 464.321 186.474 459.728 188.781V188.781Z" fill="#EEA886"/>
<path d="M158.557 326.897L113.95 327.231L113.98 331.311L158.588 330.976L158.557 326.897Z" fill="#323657"/>
<path d="M167.748 287.102L154.706 329.739L158.61 330.932L171.652 288.295L167.748 287.102Z" fill="#323657"/>
<path d="M238.775 336.291H235.288V443.479H238.775V336.291Z" fill="#706865"/>
<path d="M104.682 336.291H257.678V330.196H104.682V336.291Z" fill="#B59074"/>
<path d="M124.265 443.479H127.751L127.751 336.291H124.265L124.265 443.479Z" fill="#706865"/>
<path d="M58.5184 373.093H54.3394V425.886H58.5184V373.093Z" fill="#918783"/>
<path d="M108.958 419.657C108.958 419.657 108.994 421.988 109.76 424.708C110.319 426.699 111.436 434.421 112.858 435.49C114.279 436.57 118.883 439.424 118.203 442.362C117.523 445.3 116.952 447.352 111.995 445.604C107.039 443.867 103.722 442.872 102.762 438.513C101.815 434.166 99.0936 430.196 99.0936 430.196L95.5099 439.108L93.6147 438.343C93.6147 438.343 96.4696 428.714 96.2266 427.852C95.9837 426.99 97.5387 419.341 103.54 417.447C109.541 415.553 108.958 419.62 108.958 419.62V419.657Z" fill="#1D3B54"/>
<path d="M142.099 422.474C142.099 422.474 143.01 424.623 144.723 426.857C145.986 428.496 149.898 435.247 151.623 435.708C153.348 436.182 158.681 437.117 159.155 440.091C159.629 443.066 159.859 445.191 154.611 445.422C149.363 445.652 145.913 445.968 143.399 442.289C140.884 438.61 136.887 435.939 136.887 435.939V445.543H134.846C134.846 445.543 133.911 435.538 133.352 434.834C132.805 434.13 131.396 426.444 136.255 422.449C141.115 418.455 142.099 422.449 142.099 422.449V422.474Z" fill="#1D3B54"/>
<path d="M88.6826 291.901C88.6826 291.901 89.8489 287.76 89.9582 287.226C90.0675 286.692 91.173 285.611 92.5579 284.494C93.9307 283.377 96.2996 282.479 96.5912 282.564C96.8827 282.661 97.2229 282.612 97.6967 283.231C98.1826 283.851 98.2433 284.64 98.2433 284.64C98.2433 284.64 99.1909 285.126 99.203 286.097C99.203 286.097 100.078 286.595 99.9076 287.712C99.9076 287.712 100.746 288.222 100.552 289.023C100.552 289.023 99.446 290.104 99.1545 290.614C98.8629 291.136 96.4089 293.212 93.7485 294.839C93.7485 294.839 90.3591 297.34 88.6826 291.901V291.901Z" fill="#EEA886"/>
<path d="M93.7729 288.623C93.7729 288.623 94.271 290.359 94.1738 290.929C94.0645 291.488 98.1585 291.573 98.1585 291.573C98.1585 291.573 95.911 288.076 93.7851 288.635L93.7729 288.623Z" fill="#CF8C6C"/>
<path d="M47.7548 299.016C49.407 296.345 51.6058 295.143 58.5911 299.975C65.5764 304.807 63.9364 303.86 65.6128 305.39C67.2893 306.92 74.6269 310.757 74.6269 310.757C74.6269 310.757 78.9152 306.495 80.9683 303.472C83.2886 300.06 88.1236 290.954 88.1236 290.954L94.9024 295.992C94.9024 295.992 81.7336 319.863 78.976 321.624C76.2304 323.384 67.9332 320.434 63.6205 318.625C59.3079 316.803 54.7401 314.46 52.7721 313.962C50.8041 313.477 43.4543 305.973 47.7548 299.004V299.016Z" fill="#1D3B54"/>
<path d="M97.4174 271.263L94.1357 286.218L95.4054 286.496L98.6871 271.541L97.4174 271.263Z" fill="#EB4747"/>
<path d="M96.2145 282.855C96.2145 282.855 92.8008 285.781 93.2017 286.388C93.6026 286.995 94.125 286.971 94.125 286.971L93.2624 288.817C93.2624 288.817 93.3839 290.359 95.0239 289.776C95.0239 289.776 94.9875 291.233 96.506 290.48C96.506 290.48 96.9069 291.452 97.6723 291.221C98.4376 291.002 100.564 289.023 100.564 289.023C100.564 289.023 100.819 288.404 99.9197 287.712C99.9197 287.712 100.151 286.656 99.2151 286.097C99.2151 286.097 99.2637 285.223 98.2554 284.64C98.2554 284.64 98.2189 282.685 96.5911 282.564C96.5911 282.564 96.3602 282.722 96.2145 282.843V282.855Z" fill="#DB9C7C"/>
<path d="M90.019 287.275C90.019 287.275 92.3029 285.211 94.0522 284.628C94.4531 284.494 94.854 284.446 95.1213 284.761C95.3885 285.077 95.2792 285.878 94.3316 286.826C93.3841 287.773 92.5944 289.424 92.5944 289.424C92.5944 289.424 91.331 290.116 90.0068 287.287L90.019 287.275Z" fill="#EEA886"/>
<path d="M80.3491 313.513C80.3491 313.513 81.7218 308.523 80.1061 304.662C80.1061 304.662 80.7257 308.657 78.9763 311.498C77.7129 313.562 80.3612 313.513 80.3612 313.513H80.3491Z" fill="#152C3D"/>
<path d="M105.326 314.29C105.326 314.29 109.019 286.959 115.445 275.048H105.982C105.982 275.048 95.3885 293.71 97.3687 312.566L105.314 314.302L105.326 314.29Z" fill="#EDDAD3"/>
<path d="M107.598 293.831C107.598 293.831 108.679 291.816 108.934 291.16C109.189 290.504 110.258 291.646 110.1 292.484C109.942 293.321 107.598 293.831 107.598 293.831V293.831Z" fill="#EEA886"/>
<path d="M115.98 298.397C115.98 298.397 115.688 299.38 115.36 299.756C115.36 299.756 114.704 300.376 114.255 300.861C114.109 301.007 114 301.141 113.927 301.238C113.648 301.638 113.137 302.585 112.202 303.35C111.254 304.115 107.646 306.459 107.646 306.459L105.095 303.739L103.054 301.614C103.054 301.614 104.779 295.143 105.581 294.329C105.654 294.244 105.739 294.171 105.824 294.111C106.565 293.491 107.379 293.346 107.804 293.054C107.962 292.957 109.59 292.034 110.112 292.241C110.841 292.52 111.23 293.006 111.339 293.528C111.339 293.528 112.736 294.135 113.198 295.045C113.198 295.045 114.498 295.568 114.753 296.867C114.753 296.867 116.016 297.547 115.98 298.384V298.397Z" fill="#EEA886"/>
<path d="M132.732 368.977C132.732 368.977 126.476 383.037 122.018 393.066C121.264 394.754 120.572 396.332 119.952 397.704C119.236 399.319 118.64 400.643 118.24 401.565C115.397 407.952 108.412 421.879 108.412 421.879C108.412 421.879 103.151 422.085 102.848 417.617C102.848 417.617 107.889 407.952 107.889 401.153C107.889 394.353 108.8 374.343 115.3 370.021C123.22 364.751 128.359 363.744 132.732 368.965V368.977Z" fill="#EEA886"/>
<path d="M74.9188 342.253C74.9188 342.253 76.243 343.576 77.3485 343.88C78.4661 344.183 97.1259 345.604 105.751 348.445C114.376 351.286 125.844 353.108 127.97 355.548C130.096 357.976 133.656 371.369 133.546 373.907C133.437 376.444 141.127 419.159 142.087 422.498C142.597 424.259 135.138 423.591 135.138 423.591C135.138 423.591 124.545 398.348 122.285 393.685C118.13 385.113 117.924 374.623 116.405 372.996C114.887 371.369 97.9398 367.726 88.1969 367.726C78.454 367.726 56.6478 368.54 54.3153 367.216C51.9828 365.893 37.3684 356.265 43.4547 343.394C49.541 330.512 74.9067 342.277 74.9067 342.277L74.9188 342.253Z" fill="#EEA886"/>
<path d="M117.049 351.468L101.596 381.179C101.596 381.179 96.9433 370.155 88.8161 368.248C80.701 366.354 48.2894 367.374 48.2894 367.374C48.2894 367.374 33.4198 348.579 46.1513 338.707C58.8827 328.848 73.7522 340.261 73.7522 340.261C73.7522 340.261 76.8257 343.588 78.3078 343.661C89.1077 344.195 100.636 346.211 117.037 351.456L117.049 351.468Z" fill="#1D3B54"/>
<path d="M151.623 435.72C151.623 435.72 146.922 436.898 145.112 435.72C143.314 434.542 137.179 424.186 135.15 423.566C135.15 423.566 137.118 419.572 142.099 422.474C142.099 422.474 150.287 433.996 151.623 435.72V435.72Z" fill="#EEA886"/>
<path d="M112.845 435.502C112.845 435.502 108.047 434.834 106.808 433.073C105.569 431.313 103.746 419.414 102.094 418.09C102.094 418.09 105.411 415.116 108.946 419.669C108.946 419.669 112.25 433.413 112.845 435.502V435.502Z" fill="#EEA886"/>
<path d="M63.7662 248.931C67.4836 248.749 75.708 250.619 76.9714 260.441C76.9714 260.441 76.6799 263.088 76.036 265.177C75.3922 267.253 77.263 273.397 76.7771 273.7C76.2911 274.004 74.2745 274.392 74.2745 274.392C74.2745 274.392 72.1121 281.095 69.7553 281.046C67.3986 280.985 58.4817 279.152 54.2784 270.798C50.0751 262.457 48.7874 249.66 63.7662 248.931V248.931Z" fill="#EEA886"/>
<path d="M66.5727 277.974C66.5727 277.974 66.2812 278.909 65.9532 280.305C65.7831 281.022 65.6009 281.847 65.4551 282.734C65.0299 285.186 64.7748 288.04 65.4065 289.946C65.4065 289.946 60.1949 291.755 56.0888 284.397C56.0888 284.397 57.8503 276.469 55.5542 271.661C53.2582 266.852 66.5727 277.974 66.5727 277.974V277.974Z" fill="#EEA886"/>
<path d="M76.9836 260.441C76.9836 260.441 71.2861 265.553 65.2727 265.14C59.1621 264.727 55.1896 272.365 55.1896 272.365C55.1896 272.365 46.0905 260.951 53.4281 251.711C60.7656 242.471 78.2956 248.979 76.9958 260.429L76.9836 260.441Z" fill="#1D3B54"/>
<path d="M62.4907 265.104C62.4542 263.95 61.1665 262.214 59.2714 263.792C57.3762 265.371 59.9274 270.871 61.4824 270.337C63.0374 269.803 62.5271 266.306 62.4907 265.104V265.104Z" fill="#EEA886"/>
<path d="M65.9531 280.318C65.7831 281.034 65.6008 281.86 65.4551 282.746C60.62 279.674 58.1782 275.947 58.1782 275.947C60.948 278.448 65.9531 280.318 65.9531 280.318Z" fill="#A77860"/>
<path d="M80.0816 308.426C78.9883 313.501 76.097 313.768 76.2792 317.52C76.4493 321.272 77.5791 321.587 75.6354 327.513C75.2709 328.605 74.9794 329.795 74.7485 331.022C74.7242 331.167 74.6878 331.313 74.6635 331.459C74.542 332.139 74.4327 332.831 74.3355 333.511C74.1654 334.761 74.0439 335.988 73.9467 337.117C73.7159 340.031 75.8662 342.289 75.8662 342.289C75.8662 342.289 56.8784 353.666 43.8433 352.063C43.8433 352.063 47.2205 337.882 49.0792 333.013C50.9379 328.144 50.379 305.633 49.0063 300.813C46.9897 293.686 51.0229 283.001 56.5261 281.604L65.0785 285.563C65.0785 285.563 73.6916 295.835 75.6232 297.389C77.5548 298.943 81.1993 303.302 80.0816 308.45V308.426Z" fill="#1D3B54"/>
<path d="M51.8244 287.627C54.2419 285.624 57.7285 282.175 62.8308 288.987C67.9209 295.786 71.6261 300.169 72.7316 302.148C73.8371 304.128 83.41 317.945 83.41 317.945C83.41 317.945 88.5001 313.222 91.4036 311.012C94.6836 308.511 103.613 299.21 103.613 299.21L109.517 305.755C109.517 305.755 89.0225 328.484 85.8518 329.285C82.6811 330.087 73.8128 322.11 70.2898 319.013C66.779 315.917 56.9146 304.662 55.2016 303.569C53.4887 302.476 45.5195 292.872 51.8123 287.627H51.8244Z" fill="#1D3B54"/>
<path d="M122.017 393.066C121.264 394.754 120.572 396.332 119.952 397.704C117.656 390.31 117.838 377.962 117.838 377.962C119.223 386.57 121.969 392.969 122.005 393.066H122.017Z" fill="#A77860"/>
<path d="M88.8283 367.386H23.0088V374.623H88.8283V367.386Z" fill="#B5DEFF"/>
<path d="M57.2549 344.292C57.2549 344.292 55.5906 350.995 63.402 352.525C71.2133 354.042 80.8226 355.997 80.8226 368.042H53.7319L57.2549 344.292V344.292Z" fill="#B5DEFF"/>
<path d="M97.4292 271.284L98.5468 269.22L98.6926 271.563L97.4292 271.284Z" fill="#EEA886"/>
<path d="M23.0089 374.623L0 277.974C0 277.974 41.5958 271.478 46.5523 290.152C51.5088 308.827 59.6603 364.278 69.5733 367.702C79.4863 371.126 23.0089 374.623 23.0089 374.623V374.623Z" fill="#B5DEFF"/>
<path d="M76.5098 324.283C76.5098 324.283 76.0846 326.056 75.6352 327.525L65.5156 314.412L76.5098 324.283V324.283Z" fill="#152C3D"/>
<path d="M51.1445 264.169C51.1445 264.169 55.1413 274.732 54.0601 277.622C54.0601 277.622 60.3044 274.951 59.1624 268.03C58.0205 261.109 51.1445 264.169 51.1445 264.169Z" fill="#1D3B54"/>
<path d="M65.5765 286.133V284.033L56.6961 279.71L53.6226 283.256L65.5765 286.133Z" fill="#1D3B54"/>
<path d="M97.0527 439.521C97.0527 441.415 95.5099 442.957 93.6147 442.957C91.7196 442.957 90.1768 441.415 90.1768 439.521C90.1768 437.626 91.7196 436.084 93.6147 436.084C95.5099 436.084 97.0527 437.626 97.0527 439.521Z" fill="#BFB2AC"/>
<path d="M19.5708 436.109L20.4455 438.561L57.2548 427.16L55.4933 422.194L19.5708 436.109Z" fill="#918783"/>
<path d="M93.6025 436.109L92.74 438.562L55.9185 427.16L57.5342 421.891L93.6025 436.109Z" fill="#918783"/>
<path d="M67.6659 438.294V441.148L55.9185 427.16L57.5342 421.891L67.6659 438.294Z" fill="#918783"/>
<path d="M67.9575 439.521C67.9575 441.415 66.4146 442.957 64.5195 442.957C62.6244 442.957 61.0815 441.415 61.0815 439.521C61.0815 437.626 62.6244 436.084 64.5195 436.084C66.4146 436.084 67.9575 437.626 67.9575 439.521Z" fill="#BFB2AC"/>
<path d="M19.5708 442.957C21.4695 442.957 23.0088 441.418 23.0088 439.521C23.0088 437.623 21.4695 436.084 19.5708 436.084C17.672 436.084 16.1328 437.623 16.1328 439.521C16.1328 441.418 17.672 442.957 19.5708 442.957Z" fill="#BFB2AC"/>
<path d="M502.357 94.0746C502.357 103.193 499.077 111.547 493.634 118.03C492.358 119.548 490.961 120.956 489.467 122.244C489.042 122.608 488.605 122.972 488.155 123.324C487.657 123.725 487.147 124.101 486.625 124.478C481.717 127.95 475.946 130.269 469.678 131.034C468.572 131.168 467.454 131.253 466.325 131.289C465.924 131.301 465.511 131.313 465.098 131.313C463.895 131.313 462.705 131.253 461.526 131.143C460.214 131.022 458.914 130.828 457.651 130.561C452.002 129.419 446.827 127.003 442.429 123.616C441.105 122.596 439.841 121.491 438.663 120.301C438.432 120.07 438.201 119.839 437.983 119.597C437.144 118.71 436.355 117.787 435.614 116.828C430.742 110.539 427.839 102.635 427.839 94.0624C427.839 73.5064 444.518 56.8357 465.086 56.8357C485.653 56.8357 502.332 73.5064 502.332 94.0624L502.357 94.0746Z" fill="#EEF0F7"/>
<path d="M489.37 114.606L486.624 124.453C481.716 127.926 475.946 130.245 469.677 131.01C468.572 131.143 467.454 131.228 466.325 131.265C465.924 131.277 465.511 131.289 465.098 131.289C463.895 131.289 462.704 131.228 461.526 131.119C460.214 130.998 458.914 130.803 457.651 130.536C452.002 129.395 446.827 126.979 442.429 123.591C441.906 120.337 441.335 116.731 440.837 113.356C443.571 112.336 452.293 109.373 457.784 107.515C457.857 107.491 457.942 107.467 458.015 107.443C458.137 107.394 458.258 107.358 458.367 107.321C458.695 107.212 458.999 107.103 459.303 107.005C459.607 106.908 459.886 106.811 460.153 106.714C461.283 106.338 462.073 106.071 462.352 105.973C462.425 105.949 462.461 105.937 462.461 105.937H462.522L469.92 106.496L471.16 106.593L471.548 106.617C471.548 106.617 471.609 106.629 471.718 106.653C472.168 106.763 473.456 107.103 475.181 107.625C479.554 108.96 486.661 111.51 489.346 114.582L489.37 114.606Z" fill="#D9C7C1"/>
<path d="M467.041 75.5827C467.041 75.5827 475.91 77.0761 474.403 90.9542C472.897 104.832 465.073 103.606 464.551 103.582C464.029 103.557 456.679 103.752 456.29 86.7774C456.29 86.7774 456.181 74.2349 467.041 75.5705V75.5827Z" fill="#EEA987"/>
<path d="M470.929 99.5627C470.929 99.5627 470.625 105.269 471.16 106.52C471.707 107.758 464.041 111.692 459.279 107.212C459.279 107.212 460.239 100.971 459.947 98.7613C459.655 96.5515 470.929 99.5627 470.929 99.5627V99.5627Z" fill="#EEA987"/>
<path d="M474.586 87.0324C474.586 87.0324 475.57 86.0003 475.91 87.0567C476.25 88.113 474.343 92.7876 474.452 93.0062C474.452 93.0062 474.27 93.4068 474.039 93.1883C473.808 92.9576 474.574 87.0324 474.574 87.0324H474.586Z" fill="#EEA987"/>
<path d="M456.4 86.656C456.4 86.656 455.452 85.5875 455.075 86.6317C454.687 87.6759 456.108 92.3383 456.278 92.6297C456.278 92.6297 456.582 93.1033 456.825 92.8969C457.068 92.6783 456.4 86.6681 456.4 86.6681V86.656Z" fill="#EEA987"/>
<path d="M475.157 85.8546C474.853 87.7487 474.561 89.1693 474.561 89.1693L473.274 90.857C473.274 90.857 473.347 87.1294 473.152 86.5466C473.079 86.3281 472.994 85.9274 472.897 85.5024C472.751 84.7982 472.593 84.009 472.496 83.7419C472.326 83.3169 464.891 81.1557 458.27 84.1911C458.27 84.1911 458.331 84.7618 458.319 85.4053C458.319 86.146 458.234 86.9837 457.894 87.1052C457.262 87.3358 457.529 91.4641 457.529 91.4641L456.497 90.2742C456.497 90.2742 456.193 88.1129 455.902 85.636C455.902 85.636 455.902 85.636 455.902 85.6239C455.841 85.041 455.768 84.4461 455.707 83.8633C455.561 81.3742 455.804 76.8453 459.048 74.1863C461.235 73.2514 464.733 72.45 470.565 74.2349C470.565 74.2349 471.901 74.3198 472.277 74.6841C475.91 78.6788 475.157 85.8546 475.157 85.8546V85.8546Z" fill="#E8734D"/>
<path d="M460.554 101.736C460.554 101.736 461.976 103.703 465.256 103.63C468.548 103.557 469.969 101.845 469.969 101.845C469.969 101.845 468.414 105.099 465.243 105.063C462.073 105.027 460.554 101.736 460.554 101.736V101.736Z" fill="#C78D71"/>
<path d="M458.38 107.333C458.38 107.333 460.761 111.474 465.268 111.862C468.135 112.105 470.601 108.487 471.767 106.702C471.767 106.702 465.365 103.958 458.38 107.333V107.333Z" fill="#EEA987"/>
<path d="M470.941 105.391C470.941 105.391 469.131 107.77 465.268 110.308L467.673 114.011L471.767 106.702L470.941 105.391Z" fill="#EDDAD3"/>
<path d="M459.461 105.949C459.461 105.949 461.769 108.839 465.268 110.308L462.632 114.121L458.027 107.455L459.473 105.949H459.461Z" fill="#EDDAD3"/>
<path d="M465.268 110.308L467.321 113.441C467.321 113.441 465.158 114.667 463.154 113.368L465.268 110.32V110.308Z" fill="#5073AB"/>
<path d="M491.751 114.023C491.751 114.023 491.727 114.096 491.69 114.23C491.46 115.031 490.597 118.127 489.467 122.231C489.042 122.596 488.605 122.96 488.155 123.312C487.657 123.713 487.147 124.089 486.625 124.465C481.717 127.938 475.946 130.257 469.678 131.022C470.224 118.139 471.755 106.702 471.755 106.702C472.958 107.018 474.112 107.333 475.193 107.649C484.644 110.357 489.443 112.736 491.071 113.647C491.083 113.647 491.095 113.659 491.107 113.671C491.533 113.914 491.739 114.036 491.739 114.036L491.751 114.023Z" fill="#323657"/>
<path d="M457.663 130.549C452.014 129.407 446.839 126.991 442.441 123.603C441.117 122.584 439.854 121.479 438.675 120.289C438.445 120.058 438.214 119.827 437.995 119.585C437.339 116.816 436.914 115.007 436.877 114.898C436.877 114.898 441.482 111.862 457.785 107.516C457.785 107.892 457.785 118.346 457.651 130.549H457.663Z" fill="#323657"/>
<path d="M466.446 113.781C466.3 117.168 466.276 123.761 466.337 131.277C465.936 131.289 465.523 131.301 465.11 131.301C463.907 131.301 462.716 131.24 461.538 131.131C462.255 121.867 463.457 116.075 464.016 113.781C464.199 113.028 464.308 112.651 464.308 112.651L466.495 113.016C466.482 113.246 466.47 113.513 466.458 113.793L466.446 113.781Z" fill="#5073AB"/>
<path d="M493.622 118.018C492.346 119.536 490.949 120.944 489.455 122.231C489.03 122.596 488.593 122.96 488.143 123.312L491.071 113.635C491.071 113.635 491.095 113.635 491.107 113.659C491.289 113.781 491.472 113.963 491.678 114.23C492.249 114.983 492.917 116.306 493.61 118.018H493.622Z" fill="#323657"/>
<path d="M438.675 120.301C438.444 120.07 438.214 119.839 437.995 119.597C437.157 118.71 436.367 117.787 435.626 116.828C436.051 115.82 436.464 115.153 436.877 114.898L438.663 120.301H438.675Z" fill="#323657"/>
<path d="M240.208 43.2249H198.406C196.091 43.2249 194.215 45.1003 194.215 47.4138V50.7042C194.215 53.0177 196.091 54.8931 198.406 54.8931H240.208C242.523 54.8931 244.399 53.0177 244.399 50.7042V47.4138C244.399 45.1003 242.523 43.2249 240.208 43.2249Z" fill="#F5F7FF"/>
<path d="M214.964 131.289C217.297 132.078 219.787 132.515 222.387 132.552C230.247 132.649 237.281 128.982 241.751 123.215C244.849 119.22 246.72 114.218 246.793 108.778C246.793 108.232 246.793 107.698 246.756 107.163C246.623 104.747 246.137 102.416 245.347 100.243C242.019 91.0998 233.308 84.519 222.994 84.3854C217.442 84.3126 212.304 86.1217 208.185 89.23C202.439 93.5646 198.686 100.413 198.588 108.171C198.455 118.88 205.331 128.047 214.964 131.301V131.289ZM204.626 108.232C204.699 102.465 207.481 97.3529 211.733 94.111C214.843 91.7433 218.718 90.3592 222.921 90.4077C230.648 90.5049 237.183 95.4466 239.674 102.295C240.269 103.934 240.634 105.67 240.731 107.491C240.755 107.892 240.755 108.293 240.755 108.705C240.706 112.785 239.297 116.537 236.977 119.524C233.624 123.846 228.352 126.602 222.46 126.53C220.516 126.505 218.645 126.177 216.896 125.583C209.68 123.142 204.517 116.27 204.626 108.244V108.232Z" fill="#78C2FF"/>
<path d="M236.989 119.524L241.764 123.215C237.293 128.982 230.259 132.649 222.399 132.552C219.799 132.515 217.309 132.078 214.977 131.289L216.908 125.582C218.657 126.177 220.528 126.505 222.472 126.529C228.364 126.602 233.636 123.846 236.989 119.524Z" fill="#1A598C"/>
<path d="M240.743 107.491L246.769 107.163C246.793 107.698 246.805 108.232 246.805 108.778C246.732 114.23 244.861 119.22 241.764 123.215L236.989 119.524C239.31 116.525 240.719 112.785 240.767 108.693C240.767 108.293 240.767 107.88 240.743 107.479V107.491Z" fill="#2273B5"/>
<path d="M240.743 107.491C240.646 105.682 240.281 103.946 239.686 102.307L245.359 100.243C246.149 102.428 246.635 104.747 246.768 107.164L240.743 107.491V107.491Z" fill="#2273B5"/>
<path d="M208.198 89.23C212.316 86.1217 217.455 84.3126 223.007 84.3854C233.32 84.519 242.031 91.0998 245.359 100.243L239.698 102.307C237.208 95.4345 230.672 90.5049 222.946 90.4077C218.742 90.3592 214.855 91.7433 211.757 94.111L208.222 89.2179L208.198 89.23Z" fill="#4DA8F2"/>
<path d="M386.401 152.452H402.012C405.109 152.452 407.624 154.966 407.624 158.062V173.664C407.624 176.76 405.109 179.274 402.012 179.274H386.401C383.303 179.274 380.789 176.76 380.789 173.664V158.062C380.789 154.966 383.303 152.452 386.401 152.452Z" fill="#78C2FF"/>
<path d="M393.35 171.782L386.559 165.869C386 165.383 385.94 164.546 386.426 163.987C386.911 163.428 387.75 163.368 388.309 163.853L393.107 168.03L399.947 160.405C400.445 159.859 401.283 159.81 401.83 160.308C402.376 160.806 402.425 161.644 401.927 162.19L393.326 171.782H393.35Z" fill="#F3F3F3"/>
<path d="M386.401 186.838H402.012C405.109 186.838 407.624 189.351 407.624 192.447V208.05C407.624 211.146 405.109 213.659 402.012 213.659H386.401C383.303 213.659 380.789 211.146 380.789 208.05V192.447C380.789 189.351 383.303 186.838 386.401 186.838Z" fill="#78C2FF"/>
<path d="M393.35 206.168L386.559 200.254C386 199.769 385.94 198.931 386.426 198.373C386.911 197.814 387.75 197.753 388.309 198.239L393.107 202.416L399.947 194.791C400.445 194.244 401.283 194.196 401.83 194.694C402.376 195.191 402.425 196.029 401.927 196.576L393.326 206.168H393.35Z" fill="#F3F3F3"/>
<path d="M402.012 221.223H386.389C383.289 221.223 380.776 223.735 380.776 226.833V242.447C380.776 245.545 383.289 248.057 386.389 248.057H402.012C405.111 248.057 407.624 245.545 407.624 242.447V226.833C407.624 223.735 405.111 221.223 402.012 221.223Z" fill="#78C2FF"/>
<path d="M295.714 406.956C295.714 406.956 296.528 412.396 297.063 414.715C297.609 417.034 302.626 423.688 302.541 424.817C302.456 425.946 300.33 427.282 299.261 426.371C298.192 425.461 291.098 418.175 289.591 415.055C288.073 411.935 283.056 407.867 282.545 406.483C282.035 405.099 288.462 401.043 290.114 400.4C291.766 399.756 295.714 406.956 295.714 406.956V406.956Z" fill="#1D2033"/>
<path d="M283.153 310.186C283.153 310.186 283.821 313.659 284.307 314.29C284.793 314.934 286.117 318.151 286.251 318.613C286.384 319.062 287.198 322.328 287.332 322.729C287.465 323.142 286.542 323.785 285.91 322.911C285.522 322.365 284.829 320.264 284.55 319.584C284.27 318.904 283.408 316.755 283.165 317.144C282.934 317.532 282.995 320.422 282.946 321.163C282.91 321.903 283.384 324.186 283.602 325.133C283.821 326.08 285.084 330.038 284.574 330.257C284.064 330.475 283.639 330.415 282.995 329.346C282.995 329.346 281.962 329.917 281.367 328.618C281.367 328.618 280.444 328.958 279.873 327.258C279.873 327.258 279.217 326.893 278.962 326.286C278.707 325.679 277.212 320.47 277.224 318.333C277.237 316.209 277.735 314.727 277.65 313.222C277.565 311.716 276.787 308.511 276.787 308.511L283.165 310.174L283.153 310.186Z" fill="#EEA886"/>
<path d="M292.045 399.562L290.114 400.412L295.714 406.956L297.573 404.904L292.045 399.562Z" fill="#50558A"/>
<path d="M311.628 413.282C311.628 413.282 310.377 416.281 309.332 417.483C308.275 418.673 304.254 420.798 304.23 424.343C304.206 428.18 311.021 427.112 313.681 426.978C316.342 426.832 316.548 424.793 317.666 422.619C318.784 420.446 319.913 420.81 320.132 419.062C320.339 417.313 319.27 413.391 319.27 413.391L311.628 413.294V413.282Z" fill="#1D2033"/>
<path d="M311.507 412.177L311.312 413.998C311.312 413.998 315.504 415.504 319.464 414.156L319.245 411.667L311.507 412.177V412.177Z" fill="#50558A"/>
<path d="M334.746 365.953C334.746 361.23 331.296 319.973 331.454 318.394C331.563 317.362 330.458 307.491 329.68 300.74C329.68 300.679 329.668 300.619 329.656 300.57C329.656 300.558 329.656 300.546 329.656 300.534C329.437 298.639 329.243 297 329.122 295.908C329.061 295.398 329.012 295.009 328.988 294.754C328.964 294.548 328.951 294.438 328.951 294.438C328.951 294.438 306.671 290.043 295.118 294.196C294.632 294.366 294.171 294.56 293.734 294.766C293.734 294.766 293.709 294.96 293.661 295.337C293.539 296.187 293.308 297.972 292.98 300.388C292.92 300.801 292.871 301.226 292.81 301.663C291.17 314.108 292.227 327.622 295.094 341.464C297.913 355.038 299.468 365.189 299.759 367.168C300.148 369.754 301.278 376.869 302.529 384.676C296.394 392.24 291.17 398.663 291.559 399.295C292.531 400.873 301.132 409.773 301.606 408.195C301.606 408.195 303.161 406.434 305.59 403.629C306.368 408.401 306.89 411.667 306.89 411.667C306.89 411.667 316.317 413.914 319.792 411.874C319.792 411.874 318.431 401.517 317.01 390.261C325.671 379.904 334.746 368.443 334.746 365.966V365.953ZM313.839 362.542C313.717 356.191 310.899 320.616 311.191 320.616C312.576 320.616 320.411 354.492 320.703 359.263C320.763 360.235 319.537 362.42 317.568 365.298C316.682 366.597 315.637 368.03 314.495 369.547C314.106 366.063 313.851 363.501 313.839 362.542Z" fill="#292C47"/>
<path d="M338.464 235.429L332.475 256.908C332.268 257.6 332.025 258.462 331.758 259.458V259.494C331.758 259.494 331.746 259.506 331.746 259.519C330.749 263.343 329.51 269.183 329.146 275.667C328.891 280.087 329.717 297.862 329.717 297.862C329.717 297.862 320.654 301.238 307.085 300.388C307.085 300.388 292.495 300.048 293.685 291.112C296.831 267.447 293.758 257.685 293.345 255.318C293.345 255.318 291.365 243.819 289.943 234.191C294.049 232.661 311.592 226.772 311.592 226.772L320.679 227.452C320.679 227.452 334.491 230.852 338.476 235.429H338.464Z" fill="#D9C7C1"/>
<path d="M316.135 196.393C316.135 196.393 325.003 197.887 323.497 211.765C321.991 225.643 314.167 224.417 313.645 224.392C313.122 224.368 305.773 224.562 305.384 207.588C305.384 207.588 305.275 195.046 316.135 196.381V196.393Z" fill="#EEA987"/>
<path d="M320.023 220.373C320.023 220.373 319.719 226.08 320.254 227.331C320.788 228.569 313.135 232.503 308.373 228.023C308.373 228.023 309.332 221.782 309.041 219.572C308.737 217.362 320.023 220.373 320.023 220.373V220.373Z" fill="#EEA987"/>
<path d="M323.679 207.843C323.679 207.843 324.663 206.811 325.004 207.867C325.344 208.924 323.436 213.598 323.546 213.817C323.546 213.817 323.364 214.218 323.133 213.999C322.902 213.768 323.667 207.843 323.667 207.843H323.679Z" fill="#EEA987"/>
<path d="M305.481 207.467C305.481 207.467 304.546 206.398 304.157 207.442C303.768 208.487 305.189 213.149 305.36 213.441C305.36 213.441 305.663 213.914 305.906 213.708C306.149 213.489 305.481 207.479 305.481 207.479V207.467Z" fill="#EEA987"/>
<path d="M324.25 206.665C323.947 208.559 323.655 209.98 323.655 209.98L322.367 211.668C322.367 211.668 322.44 207.94 322.246 207.357C322.173 207.139 322.088 206.738 321.991 206.313C321.845 205.609 321.687 204.82 321.59 204.553C321.42 204.128 313.985 201.966 307.364 205.002C307.364 205.002 307.425 205.573 307.413 206.216C307.413 206.957 307.328 207.795 306.988 207.916C306.356 208.147 306.623 212.275 306.623 212.275L305.591 211.085C305.591 211.085 305.287 208.924 304.995 206.447C304.995 206.447 304.995 206.447 304.995 206.435C304.935 205.852 304.862 205.257 304.801 204.674C304.655 202.185 304.898 197.656 308.142 194.997C310.328 194.062 313.827 193.261 319.67 195.046C319.67 195.046 321.007 195.131 321.383 195.495C325.016 199.49 324.25 206.665 324.25 206.665Z" fill="#E8734D"/>
<path d="M309.648 222.547C309.648 222.547 311.069 224.514 314.349 224.441C317.642 224.368 319.063 222.656 319.063 222.656C319.063 222.656 317.508 225.91 314.337 225.874C311.166 225.837 309.648 222.547 309.648 222.547Z" fill="#C78D71"/>
<path d="M307.474 228.144C307.474 228.144 309.855 232.284 314.362 232.673C317.217 232.916 319.695 229.298 320.861 227.513C320.861 227.513 314.459 224.769 307.474 228.144Z" fill="#EEA987"/>
<path d="M320.035 226.214C320.035 226.214 318.224 228.593 314.361 231.131L316.767 234.834L320.861 227.525L320.035 226.214Z" fill="#EDDAD3"/>
<path d="M308.555 226.76C308.555 226.76 310.863 229.65 314.361 231.119L311.725 234.931L307.121 228.266L308.567 226.76H308.555Z" fill="#EDDAD3"/>
<path d="M314.361 231.131L316.414 234.264C316.414 234.264 314.252 235.49 312.248 234.191L314.361 231.143V231.131Z" fill="#5073AB"/>
<path d="M293.175 302.003C293.175 302.003 304.303 306.107 329.462 302.246L329.122 297.692C329.122 297.692 314.531 301.991 293.612 298.312L293.163 302.015L293.175 302.003Z" fill="#1D2033"/>
<path d="M320.861 227.513C320.861 227.513 318.261 246.94 318.613 263.695C318.966 280.451 331.636 310.878 331.636 310.878C331.636 310.878 337.176 305.524 339.581 302.5C339.581 302.5 330.968 277.646 331.126 273.166C331.284 268.685 340.845 234.834 340.845 234.834C340.845 234.834 335.524 231.374 320.861 227.513V227.513Z" fill="#323657"/>
<path d="M306.891 228.338C306.891 228.338 306.915 246.94 306.55 263.695C306.198 280.451 303.987 311.643 303.987 311.643C303.987 311.643 291.596 309.676 289.178 306.653C289.178 306.653 294.196 277.646 294.038 273.166C293.88 268.685 285.959 235.708 285.959 235.708C285.959 235.708 290.563 232.685 306.866 228.326L306.891 228.338Z" fill="#323657"/>
<path d="M315.2 299.089H308.36V304.164H315.2V299.089Z" fill="#3A4066"/>
<path d="M313.39 233.462C313.39 233.462 310.341 243.88 310.073 264.57C309.806 285.259 310.45 291.184 310.45 291.184L312.831 295.895L316.002 290.978C316.002 290.978 314.981 243.37 315.576 233.814L313.39 233.45V233.462Z" fill="#5073AB"/>
<path d="M330.944 311.06C330.944 311.06 331.685 310.563 331.892 310.21C331.892 310.21 332.208 309.543 332.463 309.081C332.548 308.936 332.621 308.814 332.681 308.729C332.924 308.401 333.568 307.758 333.908 306.835C334.248 305.924 334.528 301.638 334.528 301.638L331.904 300.873L329.571 299.854C329.571 299.854 324.457 303.763 324.032 304.589C323.995 304.674 323.959 304.747 323.922 304.832C323.643 305.56 323.777 306.204 323.679 306.604C323.643 306.75 323.4 308.219 323.752 308.547C324.226 308.996 324.773 309.142 325.259 309.069C325.259 309.069 326.243 309.919 327.166 309.992C327.166 309.992 328.041 310.805 329.231 310.611C329.231 310.611 330.227 311.34 330.932 311.073L330.944 311.06Z" fill="#EEA886"/>
<path d="M327.591 299.38C327.591 299.38 331.139 302.501 336.107 304.176C336.107 304.176 352.58 277.355 352.787 275.424C352.981 273.627 344.611 237.166 340.845 234.859L333.993 254.917C334.443 254.783 341.793 270.155 341.817 272.134C341.853 274.781 327.591 299.392 327.591 299.392V299.38Z" fill="#323657"/>
<path d="M285.084 313.817C285.084 313.817 281.379 314.509 276.034 314.205C276.034 314.205 278.123 279.783 277.917 277.841C277.722 276.056 282.205 238.028 285.983 235.721L292.713 255.985C292.264 255.852 288.206 276.724 288.17 278.69C288.133 281.337 285.096 313.817 285.096 313.817H285.084Z" fill="#323657"/>
<path d="M323.291 303.193L333.872 308.669L329.705 316.366L320.703 306.75L323.291 303.193Z" fill="#292C47"/>
<path d="M317.569 365.298L316.5 386.23L314.495 369.56C315.637 368.03 316.682 366.597 317.569 365.31V365.298Z" fill="#1D2033"/>
<path d="M270.47 110.891H264.298V131.131H270.47V110.891Z" fill="#78C2FF"/>
<path d="M491.775 245.726C491.775 261.461 479.02 274.332 463.154 274.332C447.288 274.332 434.521 261.498 434.521 245.726C434.521 229.953 447.337 217.107 463.154 217.107C478.971 217.107 491.775 229.917 491.775 245.726Z" fill="#EEF0F7"/>
<path d="M260.35 116.561H254.179V131.119H260.35V116.561Z" fill="#78C2FF"/>
<path d="M280.602 101.505H274.43V131.131H280.602V101.505Z" fill="#78C2FF"/>
<path d="M531.755 330.087H571.48V327.731H531.755V330.087Z" fill="#E2D2CA"/>
<path d="M566.159 336.219H562.673V443.406H566.159V336.219Z" fill="#706865"/>
<path d="M510.35 330.427H537.963V327.063H510.35V330.427Z" fill="#CCBDB7"/>
<path d="M518.927 330.087H529.386V298.348H518.927V330.087Z" fill="#4667A8"/>
<path d="M432.734 336.219H585.73V330.123H432.734V336.219Z" fill="#B59074"/>
<path d="M615.093 293.237C615.093 293.237 616.769 316.695 612.177 319.499C609.31 321.26 597.854 327.185 598.194 328.302C598.535 329.419 604.657 338.198 604.657 338.198C604.657 338.198 626.658 323.725 627.362 319.159C628.055 314.703 626.281 284.822 623.256 283.438C620.997 282.406 619.794 283.256 616.939 285.381C612.93 288.356 615.081 293.237 615.081 293.237H615.093Z" fill="#FFC05C"/>
<path d="M588.026 428.775C588.026 428.775 588.707 433.523 588.792 434.239C588.877 434.955 596.396 433.814 596.396 433.814L597.004 428.168C597.004 428.168 588.962 428.107 588.014 428.775H588.026Z" fill="#424773"/>
<path d="M588.719 433.632C588.719 433.632 586.338 436.498 584.029 437.736C581.721 438.987 578.101 439.472 576.74 440.771C575.756 441.706 573.157 445.713 582.729 445.628C592.302 445.543 596.919 446.199 597.951 444.657C598.972 443.115 596.469 433.316 596.469 433.316C596.469 433.316 594.197 434.13 588.731 433.632H588.719Z" fill="#292C47"/>
<path d="M539.822 428.824C539.822 428.824 540.502 433.571 540.587 434.275C540.672 434.992 548.192 433.85 548.192 433.85L548.799 428.205C548.799 428.205 540.757 428.144 539.81 428.812L539.822 428.824Z" fill="#424773"/>
<path d="M540.514 433.668C540.514 433.668 538.133 436.534 535.825 437.772C533.516 439.023 525.037 440.043 523.676 441.33C522.692 442.265 521.052 446.005 534.525 445.665C544.098 445.41 548.714 446.235 549.747 444.693C550.779 443.151 548.265 433.353 548.265 433.353C548.265 433.353 546.126 434.227 540.526 433.668H540.514Z" fill="#292C47"/>
<path d="M612.298 346.794C612.298 346.794 584.941 351.42 578.769 352.391C572.586 353.363 539.093 361.692 534.902 364.23C531.561 366.245 536.651 414.788 537.842 433.304H551.035L551.994 377.756C567.824 378.156 579.134 374.052 590.662 375.801C602.191 377.549 611.8 380.038 619.126 370.215C619.126 370.215 619.393 348.931 612.311 346.794H612.298Z" fill="#292C47"/>
<path d="M585.329 433.353L598.182 432.551L599.433 377.755C606.249 377.925 608.581 377.488 614.109 376.821L624.483 352.695C615.384 354.516 586.228 361.862 582.341 364.217C579 366.245 584.127 414.812 585.317 433.328L585.329 433.353Z" fill="#292C47"/>
<path d="M599.701 244.317C599.701 244.317 589.679 241.549 585.852 249.332C582.025 257.115 583.762 271.867 588.816 273.251C593.87 274.635 601.134 273.045 603.236 268.2C605.338 263.356 607.002 256.471 606.504 252.015C606.006 247.559 602.374 245.386 599.701 244.317V244.317Z" fill="#EEA886"/>
<path d="M591.427 271.697C591.427 271.697 591.537 277.61 590.881 278.873C590.225 280.135 604.839 279.82 604.839 279.82C604.839 279.82 602.531 272.717 603.843 266.658C605.131 260.672 591.415 271.697 591.415 271.697H591.427Z" fill="#EEA886"/>
<path d="M604.645 264.424C604.645 264.424 603.867 266.015 600.077 265.76C596.299 265.505 591.306 260.939 589.702 260.539C588.099 260.126 588.002 259.215 588.002 259.215L587.151 260.721L585.511 260.976C585.511 260.976 586.629 256.398 584.187 254.796C581.745 253.181 585.28 240.225 597.623 243.346C597.623 243.346 607.038 245.07 607.16 250.327C607.281 255.585 606.467 261.656 604.645 264.436V264.424Z" fill="#3A3F47"/>
<path d="M590.116 278.715C590.116 278.715 590.152 276.299 591.245 276.068C592.339 275.837 602.738 274.405 604.074 274.939L604.645 278.12C604.645 278.12 602.057 279.71 590.104 278.715H590.116Z" fill="#E2D2CA"/>
<path d="M587.115 258.122C587.395 256.143 589.642 253.873 590.93 256.957C592.217 260.029 590.067 264.509 588.622 264.278C587.176 264.035 586.739 260.806 587.115 258.122Z" fill="#EEA886"/>
<path d="M546.576 307.199C546.576 307.199 546.576 307.199 546.588 307.199C546.516 307.236 546.503 307.236 546.576 307.199Z" fill="#323657"/>
<path d="M602.628 245.726C602.628 245.726 614.85 245.155 604.767 264.23L602.628 245.726Z" fill="#3A3F47"/>
<path d="M629.865 439.849L628.954 442.411L590.529 430.512L592.375 425.327L629.865 439.849Z" fill="#918783"/>
<path d="M589.205 428.69H593.578V386.935H589.205V428.69Z" fill="#918783"/>
<path d="M578.514 387.165H604.281V384.701H578.514V387.165Z" fill="#5E5854"/>
<path d="M552.589 439.849L553.488 442.411L591.926 430.512L590.237 424.999L552.589 439.849Z" fill="#918783"/>
<path d="M579.656 442.131V445.106L591.926 430.512L590.237 424.999L579.656 442.131Z" fill="#918783"/>
<path d="M548.994 443.406C548.994 445.385 550.597 447 552.59 447C554.582 447 556.185 445.397 556.185 443.406C556.185 441.415 554.582 439.812 552.59 439.812C550.597 439.812 548.994 441.415 548.994 443.406Z" fill="#BFB2AC"/>
<path d="M579.352 443.406C579.352 445.385 580.956 447 582.948 447C584.94 447 586.544 445.397 586.544 443.406C586.544 441.415 584.94 439.812 582.948 439.812C580.956 439.812 579.352 441.415 579.352 443.406Z" fill="#BFB2AC"/>
<path d="M626.281 443.406C626.281 445.385 627.885 447 629.877 447C631.869 447 633.473 445.397 633.473 443.406C633.473 441.415 631.869 439.812 629.877 439.812C627.885 439.812 626.281 441.415 626.281 443.406Z" fill="#BFB2AC"/>
<path d="M565.309 384.713H617.134C619.676 384.713 621.738 382.652 621.738 380.111V379.99C621.738 377.448 619.676 375.388 617.134 375.388H565.309C562.766 375.388 560.705 377.448 560.705 379.99V380.111C560.705 382.652 562.766 384.713 565.309 384.713Z" fill="#E2D2CA"/>
<path d="M452.318 443.406H455.792V336.219H452.318V443.406Z" fill="#706865"/>
<path d="M564.714 313.635H483.612C481.073 313.635 479.019 311.583 479.019 309.045V254.565C479.019 252.027 481.073 249.975 483.612 249.975H564.714C567.253 249.975 569.306 252.027 569.306 254.565V309.045C569.306 311.583 567.253 313.635 564.714 313.635Z" fill="#5F8BE3"/>
<path d="M482.555 303.654H565.771V253.411H482.555V303.654Z" fill="#F5F7FF"/>
<path d="M482.555 257.406H565.771V253.411H482.555V257.406Z" fill="#CECFD6"/>
<path d="M492.82 300.57H488.471C486.904 300.57 485.628 299.295 485.628 297.729V263.27C485.628 261.704 486.904 260.429 488.471 260.429H492.82C494.387 260.429 495.663 261.704 495.663 263.27V297.729C495.663 299.295 494.387 300.57 492.82 300.57Z" fill="#CECFD6"/>
<path d="M561.883 264.145H546.649C545.799 264.145 545.118 263.453 545.118 262.615V261.959C545.118 261.109 545.811 260.429 546.649 260.429H561.883C562.733 260.429 563.414 261.121 563.414 261.959V262.615C563.414 263.465 562.721 264.145 561.883 264.145Z" fill="#CECFD6"/>
<path d="M560.243 301.59H548.277C546.527 301.59 545.106 300.169 545.106 298.421V269.803C545.106 268.054 546.527 266.634 548.277 266.634H560.243C561.992 266.634 563.414 268.054 563.414 269.803V298.421C563.414 300.169 561.992 301.59 560.243 301.59Z" fill="#CECFD6"/>
<path d="M521.247 308.353C521.247 309.956 522.547 311.267 524.163 311.267C525.778 311.267 527.078 309.968 527.078 308.353C527.078 306.738 525.778 305.439 524.163 305.439C522.547 305.439 521.247 306.738 521.247 308.353Z" fill="#5C5552"/>
<path d="M505.466 330.208V329.079C505.466 329.079 507.058 322.037 518.331 322.037C529.605 322.037 529.374 330.22 529.374 330.22H505.466V330.208Z" fill="#2E436E"/>
<path d="M529.52 323.069C529.52 323.069 527.066 322.875 526.179 322.34C525.28 321.794 519.911 318.188 518.659 318.771C517.396 319.354 509.014 321.916 509.293 323.142C509.585 324.368 510.362 324.247 510.957 324.028C511.553 323.81 517.639 322.535 518.185 322.753C518.185 322.753 512.196 324.939 512.172 326.529C512.148 328.12 513.423 328.508 513.994 329.116C514.565 329.723 515.246 331.216 516.788 331.325C518.331 331.435 525.851 328.824 527.406 328.703C528.961 328.581 531.828 328.8 532.022 328.545C532.217 328.29 529.544 323.069 529.544 323.069H529.52Z" fill="#EEA886"/>
<path d="M574.092 282.066C581.903 280.694 590.115 278.727 590.115 278.727L604.657 278.132C604.657 278.132 618.008 281.07 623.256 283.438C623.754 283.669 623.754 295.337 625.127 298.397L620.766 307.588C620.766 307.588 618.251 325.789 617.729 333.887C617.486 337.603 618.409 369.803 618.409 369.803C618.409 369.803 617.097 370.446 607.184 371.539C597.259 372.632 572.464 371.138 572.306 369.973C572.148 368.795 577.105 326.347 577.323 324.149C577.663 320.774 576.351 305.184 576.351 305.184C574.481 307.697 569.718 319.026 564.75 324.429C561.822 327.598 547.353 329.553 544.632 329.638C538.692 329.832 527.868 331.022 527.54 330.439C527.284 330.087 526.592 320.835 527.272 320.604C527.868 320.41 547.985 319.244 553.136 316.512C555.019 315.517 560.656 303.229 560.656 303.229C560.656 303.229 569.791 284.009 574.092 282.066V282.066Z" fill="#FFC05C"/>
<path d="M602.75 368.855H627.156C632.04 368.855 636 364.898 636 360.016V319.426C636 314.544 632.04 310.587 627.156 310.587H602.75C597.865 310.587 593.906 314.544 593.906 319.426V360.016C593.906 364.898 597.865 368.855 602.75 368.855Z" fill="#E2D2CA"/>
<path d="M601.365 382.394C607.573 382.394 612.602 380.317 616.332 376.201C624.751 366.913 623.232 350.594 623.159 349.902C623.026 348.615 621.884 347.68 620.596 347.802C619.308 347.923 618.373 349.076 618.494 350.364C618.519 350.546 619.855 365.347 612.845 373.069C610.015 376.189 606.249 377.707 601.365 377.707C600.077 377.707 599.021 378.751 599.021 380.05C599.021 381.349 600.065 382.394 601.365 382.394V382.394Z" fill="#E2D2CA"/>
<path d="M525.365 273.943C525.365 276.821 524.333 279.456 522.608 281.495C522.207 281.969 521.769 282.418 521.296 282.831C521.162 282.952 521.028 283.062 520.882 283.171C520.725 283.292 520.567 283.414 520.397 283.535C518.854 284.628 517.019 285.356 515.051 285.599C514.699 285.648 514.347 285.672 513.994 285.684C513.861 285.684 513.739 285.684 513.606 285.684C513.229 285.684 512.852 285.66 512.476 285.636C512.063 285.599 511.65 285.539 511.249 285.454C509.475 285.089 507.835 284.324 506.438 283.256C506.025 282.94 505.624 282.588 505.248 282.212C505.175 282.139 505.102 282.066 505.029 281.993C504.762 281.714 504.519 281.422 504.276 281.119C502.733 279.128 501.822 276.639 501.822 273.931C501.822 267.447 507.082 262.178 513.581 262.178C520.081 262.178 525.341 267.435 525.341 273.931L525.365 273.943Z" fill="#EEF0F7"/>
<path d="M521.271 280.427L520.409 283.535C518.866 284.628 517.031 285.357 515.063 285.599C514.711 285.648 514.359 285.672 514.006 285.684C513.873 285.684 513.751 285.684 513.618 285.684C513.241 285.684 512.865 285.66 512.488 285.636C512.075 285.599 511.662 285.539 511.261 285.454C509.487 285.089 507.847 284.324 506.45 283.256C506.28 282.224 506.11 281.095 505.952 280.026C506.815 279.698 509.56 278.764 511.297 278.181C511.322 278.181 511.346 278.169 511.37 278.156C511.407 278.144 511.443 278.132 511.48 278.12C511.577 278.084 511.686 278.047 511.771 278.023C511.868 277.986 511.953 277.962 512.038 277.926C512.391 277.804 512.646 277.719 512.731 277.695C512.755 277.695 512.767 277.695 512.767 277.695H512.792L515.124 277.865L515.513 277.889H515.634C515.634 277.889 515.646 277.901 515.683 277.914C515.829 277.95 516.23 278.059 516.776 278.217C518.161 278.642 520.396 279.443 521.247 280.415L521.271 280.427Z" fill="#D9C7C1"/>
<path d="M514.225 268.115C514.225 268.115 517.019 268.589 516.545 272.972C516.071 277.355 513.605 276.967 513.435 276.954C513.277 276.954 510.957 277.003 510.823 271.648C510.823 271.648 510.787 267.69 514.213 268.115H514.225Z" fill="#EEA987"/>
<path d="M515.452 275.679C515.452 275.679 515.355 277.476 515.525 277.877C515.695 278.266 513.277 279.504 511.771 278.096C511.771 278.096 512.075 276.129 511.978 275.424C511.88 274.732 515.44 275.679 515.44 275.679H515.452Z" fill="#EEA987"/>
<path d="M516.606 271.733C516.606 271.733 516.922 271.406 517.031 271.733C517.141 272.061 516.533 273.542 516.57 273.603C516.57 273.603 516.509 273.737 516.436 273.664C516.363 273.591 516.606 271.721 516.606 271.721V271.733Z" fill="#EEA987"/>
<path d="M510.86 271.612C510.86 271.612 510.569 271.272 510.447 271.612C510.326 271.94 510.775 273.409 510.824 273.506C510.824 273.506 510.921 273.652 510.994 273.591C511.067 273.518 510.86 271.624 510.86 271.624V271.612Z" fill="#EEA987"/>
<path d="M516.788 271.357C516.691 271.952 516.606 272.401 516.606 272.401L516.205 272.935C516.205 272.935 516.23 271.758 516.169 271.576C516.145 271.503 516.12 271.381 516.084 271.248C516.035 271.029 515.987 270.774 515.962 270.689C515.914 270.556 513.569 269.876 511.48 270.835C511.48 270.835 511.492 271.017 511.492 271.223C511.492 271.454 511.467 271.721 511.358 271.758C511.164 271.831 511.237 273.13 511.237 273.13L510.909 272.753C510.909 272.753 510.811 272.073 510.726 271.296C510.702 271.102 510.678 270.92 510.666 270.738C510.617 269.949 510.702 268.528 511.723 267.678C512.415 267.387 513.521 267.132 515.355 267.69C515.355 267.69 515.78 267.714 515.902 267.836C517.044 269.099 516.813 271.357 516.813 271.357H516.788Z" fill="#E8734D"/>
<path d="M512.184 276.372C512.184 276.372 512.634 276.991 513.666 276.967C514.699 276.942 515.16 276.408 515.16 276.408C515.16 276.408 514.674 277.44 513.666 277.428C512.67 277.428 512.184 276.384 512.184 276.384V276.372Z" fill="#C78D71"/>
<path d="M511.492 278.132C511.492 278.132 512.245 279.443 513.666 279.565C514.565 279.638 515.355 278.496 515.719 277.938C515.719 277.938 513.691 277.076 511.492 278.132Z" fill="#EEA987"/>
<path d="M515.452 277.525C515.452 277.525 514.881 278.278 513.666 279.079L514.419 280.245L515.707 277.938L515.452 277.525Z" fill="#EDDAD3"/>
<path d="M511.832 277.695C511.832 277.695 512.561 278.606 513.666 279.067L512.84 280.269L511.382 278.169L511.844 277.695H511.832Z" fill="#EDDAD3"/>
<path d="M513.666 279.079L514.322 280.063C514.322 280.063 513.642 280.451 513.01 280.038L513.678 279.079H513.666Z" fill="#5073AB"/>
<path d="M522.024 280.245C522.024 280.245 521.319 282.795 521.307 282.831C521.174 282.952 521.04 283.062 520.894 283.171C520.736 283.292 520.578 283.414 520.408 283.535C518.865 284.628 517.031 285.357 515.063 285.599C515.233 281.532 515.719 277.926 515.719 277.926C516.096 278.023 516.46 278.12 516.8 278.229C518.051 278.581 520.906 279.504 522.024 280.245V280.245Z" fill="#323657"/>
<path d="M511.261 285.466C509.487 285.102 507.847 284.337 506.45 283.268C506.037 282.952 505.636 282.6 505.259 282.224C505.187 282.151 505.114 282.078 505.041 282.005C504.834 281.131 504.701 280.561 504.688 280.524C504.688 280.524 506.146 279.565 511.285 278.193C511.285 278.314 511.285 281.617 511.236 285.466H511.261Z" fill="#323657"/>
<path d="M514.043 280.172C513.994 281.24 513.994 283.317 514.006 285.696C513.873 285.696 513.751 285.696 513.618 285.696C513.241 285.696 512.864 285.672 512.488 285.648C512.719 282.722 513.095 280.9 513.265 280.172C513.326 279.929 513.362 279.82 513.362 279.82L514.055 279.929C514.055 280.002 514.055 280.087 514.043 280.172V280.172Z" fill="#5073AB"/>
<path d="M522.62 281.507C522.219 281.981 521.781 282.43 521.308 282.843C521.174 282.964 521.04 283.074 520.895 283.183L522.024 280.257C522.316 280.427 522.486 281.204 522.62 281.52V281.507Z" fill="#323657"/>
<path d="M505.272 282.224C505.199 282.151 505.126 282.078 505.053 282.005C504.786 281.726 504.543 281.435 504.3 281.131C504.433 280.815 504.567 280.597 504.701 280.524L505.272 282.224Z" fill="#323657"/>
<path d="M463.154 257.139C462.352 257.139 461.708 256.495 461.708 255.694V235.757C461.708 234.956 462.352 234.312 463.154 234.312C463.956 234.312 464.6 234.956 464.6 235.757V255.694C464.6 256.495 463.956 257.139 463.154 257.139V257.139Z" fill="#949494"/>
<path d="M473.128 247.171H453.18C452.378 247.171 451.734 246.527 451.734 245.726C451.734 244.924 452.378 244.281 453.18 244.281H473.128C473.929 244.281 474.573 244.924 474.573 245.726C474.573 246.527 473.929 247.171 473.128 247.171Z" fill="#949494"/>
</g>
<defs>
<linearGradient id="paint0_linear_421_2" x1="179.528" y1="49.0529" x2="531.342" y2="49.0529" gradientUnits="userSpaceOnUse">
<stop stop-color="#40D5E6"/>
<stop offset="1" stop-color="#5577FF"/>
</linearGradient>
<clipPath id="clip0_421_2">
<rect width="636" height="447" fill="white"/>
</clipPath>
</defs>
</svg>
