<svg xmlns="http://www.w3.org/2000/svg" viewBox="0 0 100 100" width="100" height="100">
  <!-- Website -->
 <rect x="10" y="10" width="80" height="60" fill="#2c3e50" />
  
  <!-- Screen -->
  <rect x="20" y="20" width="60" height="40" fill="#ecf0f1" />
  
  <!-- Stand -->
  <rect x="45" y="70" width="10" height="20" fill="#34495e" />
  
  <!-- Mobile App -->
   <rect x="30" y="10" width="40" height="80" fill="#3498db" />
  
  <!-- Screen -->
  <rect x="35" y="15" width="30" height="60" fill="#ecf0f1" />
  
  <!-- Home button -->
  <circle cx="50" cy="80" r="3" fill="#2c3e50" />
  
  <!-- Social Media -->
   <path d="M53.33,10.67H40V16h6.67V23.33H40v30H30V23.33H24.67V16H30v-5.33c0-5.5,4.21-10,9.67-10h6.67V16h-6.67c-1.84,0-3.33,1.49-3.33,3.33v6.67H56v6.67H40v26.67h13.33C66.63,83.33,70,79.96,70,75.33V23.33C70,18.69,66.63,15.33,62,15.33Z" fill="#3b5998"/>

  <!-- Twitter -->
  <rect x="40" y="10" width="30" height="30" fill="#1da1f2" />
  
  <!-- Instagram -->
  <rect x="70" y="10" width="30" height="30" fill="#bc2a8d" />
  
  <!-- Connectors -->
  <line x1="25" y1="40" x2="40" y2="40" stroke="#34495e" stroke-width="2" />
  <line x1="55" y1="40" x2="70" y2="40" stroke="#34495e" stroke-width="2" />
</svg>
