<svg xmlns="http://www.w3.org/2000/svg" xmlns:xlink="http://www.w3.org/1999/xlink" width="880.126" height="640.119" viewBox="0 0 880.126 640.119">
  <defs>
    <linearGradient id="linear-gradient" x1="-30.92" y1="0.545" x2="-30.931" y2="1.086" gradientUnits="objectBoundingBox">
      <stop offset="0" stop-color="#efccff"/>
      <stop offset="1" stop-color="#89c7ff"/>
    </linearGradient>
    <linearGradient id="linear-gradient-2" x1="0.318" y1="0.639" x2="0.88" y2="0.144" gradientUnits="objectBoundingBox">
      <stop offset="0" stop-color="#837ef7"/>
      <stop offset="0.024" stop-color="#9a7ef7"/>
      <stop offset="1" stop-color="#0071bc"/>
    </linearGradient>
    <linearGradient id="linear-gradient-3" y1="0.5" x2="1" y2="0.5" gradientUnits="objectBoundingBox">
      <stop offset="0.024" stop-color="#7ed3f7"/>
      <stop offset="1" stop-color="#0071bc"/>
    </linearGradient>
    <linearGradient id="linear-gradient-4" x1="0.5" y1="0.192" x2="0.5" y2="-0.19" gradientUnits="objectBoundingBox">
      <stop offset="0.013" stop-color="#507de7"/>
      <stop offset="1"/>
    </linearGradient>
    <linearGradient id="linear-gradient-5" x1="0.5" y1="0.393" x2="0.5" y2="-0.607" gradientUnits="objectBoundingBox">
      <stop offset="0.029" stop-color="#3466c0"/>
      <stop offset="1"/>
    </linearGradient>
    <linearGradient id="linear-gradient-6" x1="-0.077" y1="1.048" x2="0.961" y2="-0.021" gradientUnits="objectBoundingBox">
      <stop offset="0.024" stop-color="#b9e5fb"/>
      <stop offset="1"/>
    </linearGradient>
    <linearGradient id="linear-gradient-7" x1="1.169" y1="-0.177" x2="0.163" y2="0.861" xlink:href="#linear-gradient-6"/>
    <linearGradient id="linear-gradient-8" x1="-0.255" y1="0.888" x2="0.517" y2="0.391" xlink:href="#linear-gradient-6"/>
    <linearGradient id="linear-gradient-9" x1="-463.443" y1="0.158" x2="-463.357" y2="0.976" gradientUnits="objectBoundingBox">
      <stop offset="0" stop-color="#fd61c9"/>
      <stop offset="0.29" stop-color="#fa5fc9"/>
      <stop offset="0.459" stop-color="#f259c9"/>
      <stop offset="0.595" stop-color="#e44ecb"/>
      <stop offset="0.716" stop-color="#d03fcc"/>
      <stop offset="0.825" stop-color="#b62cce"/>
      <stop offset="0.924" stop-color="#9715d1"/>
      <stop offset="0.998" stop-color="#7b00d4"/>
    </linearGradient>
    <linearGradient id="linear-gradient-10" x1="-377.468" y1="-1.1" x2="-378.714" y2="1.992" gradientUnits="objectBoundingBox">
      <stop offset="0.021" stop-color="#fcee21"/>
      <stop offset="0.313" stop-color="#fbeb21"/>
      <stop offset="0.469" stop-color="#fbe321"/>
      <stop offset="0.594" stop-color="#fad621"/>
      <stop offset="0.702" stop-color="#f8c221"/>
      <stop offset="0.799" stop-color="#f6a922"/>
      <stop offset="0.888" stop-color="#f48a23"/>
      <stop offset="0.97" stop-color="#f16723"/>
      <stop offset="0.996" stop-color="#f15a24"/>
    </linearGradient>
    <linearGradient id="linear-gradient-11" x1="-160.422" y1="-0.223" x2="-160.766" y2="0.987" gradientUnits="objectBoundingBox">
      <stop offset="0" stop-color="#350838"/>
      <stop offset="0.021" stop-color="#fcee21"/>
      <stop offset="0.313" stop-color="#fbeb21"/>
      <stop offset="0.469" stop-color="#fbe321"/>
      <stop offset="0.594" stop-color="#fad621"/>
      <stop offset="0.702" stop-color="#f8c221"/>
      <stop offset="0.799" stop-color="#f6a922"/>
      <stop offset="0.888" stop-color="#f48a23"/>
      <stop offset="0.97" stop-color="#f16723"/>
      <stop offset="0.996" stop-color="#f15a24"/>
      <stop offset="1" stop-color="#f15a24"/>
    </linearGradient>
    <linearGradient id="linear-gradient-14" x1="0.507" y1="0.938" x2="0.296" y2="0.057" gradientUnits="objectBoundingBox">
      <stop offset="0" stop-color="#ea9957"/>
      <stop offset="0.973" stop-color="#a97c50"/>
    </linearGradient>
    <linearGradient id="linear-gradient-15" x1="0.647" y1="0.736" x2="0.384" y2="0.309" gradientUnits="objectBoundingBox">
      <stop offset="0.003" stop-color="#29abe2"/>
      <stop offset="1" stop-color="#1b1464"/>
    </linearGradient>
    <linearGradient id="linear-gradient-16" x1="0.54" y1="0.641" x2="0.429" y2="0.206" xlink:href="#linear-gradient-15"/>
    <linearGradient id="linear-gradient-17" x1="0.396" y1="0.594" x2="-0.136" y2="0.875" gradientUnits="objectBoundingBox">
      <stop offset="0" stop-color="#ffb176"/>
      <stop offset="1" stop-color="#a67c52"/>
    </linearGradient>
    <linearGradient id="linear-gradient-18" x1="0.405" y1="1.018" x2="0.138" y2="1.981" xlink:href="#linear-gradient-17"/>
    <linearGradient id="linear-gradient-19" x1="-3511.044" y1="0.667" x2="-3511.092" y2="0.198" xlink:href="#linear-gradient-14"/>
    <linearGradient id="linear-gradient-20" x1="-1805.398" y1="0.516" x2="-1804.101" y2="0.487" xlink:href="#linear-gradient-15"/>
    <linearGradient id="linear-gradient-21" x1="-953.454" y1="0.538" x2="-952.825" y2="0.472" xlink:href="#linear-gradient-15"/>
    <linearGradient id="linear-gradient-22" x1="-1479.081" y1="0.631" x2="-1477.956" y2="0.07" gradientUnits="objectBoundingBox">
      <stop offset="0" stop-color="#ffb176"/>
      <stop offset="0.269" stop-color="#e7a36c"/>
      <stop offset="0.307" stop-color="#e4a16b"/>
      <stop offset="1" stop-color="#a67c52"/>
    </linearGradient>
    <linearGradient id="linear-gradient-23" x1="-1355.857" y1="0.685" x2="-1354.865" y2="-0.074" xlink:href="#linear-gradient-22"/>
    <linearGradient id="linear-gradient-24" x1="-4299.708" y1="0.546" x2="-4298.747" y2="0.226" xlink:href="#linear-gradient-22"/>
    <linearGradient id="linear-gradient-25" x1="-600.811" y1="74.759" x2="-599.863" y2="74.841" gradientUnits="objectBoundingBox">
      <stop offset="0.003" stop-color="gray"/>
      <stop offset="1" stop-color="#333"/>
    </linearGradient>
    <linearGradient id="linear-gradient-26" x1="-769.621" y1="0.461" x2="-768.592" y2="0.539" xlink:href="#linear-gradient-25"/>
    <linearGradient id="linear-gradient-27" x1="-1183.17" y1="0.497" x2="-1183.104" y2="0.804" xlink:href="#linear-gradient-17"/>
    <linearGradient id="linear-gradient-28" x1="-4607.986" y1="0.644" x2="-4608.199" y2="0.056" xlink:href="#linear-gradient-14"/>
    <linearGradient id="linear-gradient-29" x1="-848.95" y1="66.947" x2="-848.864" y2="67.299" xlink:href="#linear-gradient-17"/>
  </defs>
  <g id="Group_4658" data-name="Group 4658" transform="translate(13538 21989.753)">
    <path id="Path_11048" data-name="Path 11048" d="M743.893,389.45c2.033-27.73-1.847-58.224-21.451-77.945-29.811-29.984-74.983-32.1-111.9-52.714-43.455-24.275-61.827-69.546-85.548-113.3C493.9,88.109,436.861,45.454,373.032,31.831c-38.784-8.273-80.246-6.007-116.743,9.514s-67.566,44.809-82.326,81.621c-16.227,40.471-13.424,89.241-40.826,123.16-16.564,20.5-41.613,32-61.809,48.948-29.56,24.811-48.416,62.687-47.884,101.277S44.791,473.225,78.17,492.6c24.764,14.371,54.332,18.017,82.962,17.874,76.432-.385,150.9-25.464,227.279-28.366,54.613-2.072,108.962,7.231,163.541,10.15C632.206,496.544,736.584,489.282,743.893,389.45Z" transform="translate(-13561.434 -21935.959)" opacity="0.55" fill="url(#linear-gradient)"/>
    <g id="Group_3457" data-name="Group 3457" transform="translate(-13506.793 -21481.387)" opacity="0.38">
      <path id="Path_11049" data-name="Path 11049" d="M183.712,147.7c-9.021,2.526-18.142,4.437-27.142,6.963a63.149,63.149,0,0,0,30.182-7.746c.264-.147.519-.307.778-.454C186.277,146.916,185.005,147.336,183.712,147.7Z" transform="translate(388.006 -67.306)" fill="#e0ace2"/>
      <path id="Path_11050" data-name="Path 11050" d="M164.1,150.557c-9.6-3.092-20.179-.424-29.456,2.738a126.23,126.23,0,0,0-17.23,7.443c2.625.108,5.246.229,7.871.333,9.489.368,19.379,1.047,28.522-2.266,4.723-1.713,8.961-4.467,13.212-7.192C166.057,151.232,165.084,150.873,164.1,150.557Z" transform="translate(257.815 -58.253)" fill="#e0ace2"/>
      <path id="Path_11051" data-name="Path 11051" d="M88.773,156.3c-10.349-1.28-20.828-.264-31.147,1.207,1.617.424,3.231.809,4.822,1.159,15.625,3.438,31.778,3.97,47.685,3.737,1.315-.022,2.634-.056,3.949-.1C105.765,159.717,97.4,157.364,88.773,156.3Z" transform="translate(59.041 -36.552)" fill="#e0ace2"/>
      <path id="Path_11052" data-name="Path 11052" d="M95.036,189.458c-16.274-8.416-25.2-23.285-36.151-37.755a41.618,41.618,0,0,0-10-9.562,22.087,22.087,0,0,1,.649,3.633c1.211,13.645-1.414,27.428,7.175,39.1,6.124,8.321,15.327,13.156,24.815,16.235a114.393,114.393,0,0,1,32.639-3.157A184.582,184.582,0,0,1,95.036,189.458Z" transform="translate(29.983 -81.672)" fill="#e0ace2" opacity="0.58"/>
      <path id="Path_11053" data-name="Path 11053" d="M760.316,128.159H39.812l-.1.121a1.616,1.616,0,0,0-.156.108,19.03,19.03,0,0,0-7.984,13.5,8.27,8.27,0,0,1-.251,1.492,19.363,19.363,0,0,0,.934,12.814,28.042,28.042,0,0,0,5.3,8.018,6.259,6.259,0,0,0,2.6,1.708c15.02,4.978,34.654,4.986,47.088,6.656,8.55,1.15,16.936,3.659,20.8,11.05a33.071,33.071,0,0,1,7.59,4.978c6.176,5.393,10.444,12.481,15.379,19.1,5.864,7.871,12.442,15.093,20.378,20.486,16.066,10.916,36.466,16.508,54.773,21.126,5.415,1.367,10.851,2.521,16.3,3.529,15.868-1.181,31.739-2.651,47.577-1.475,1.509.112,4.091.32,7.266.679,6.69-.986,13.71-.817,20.084-2.751a59.585,59.585,0,0,0,12.728-5.908c5.051-3.858,9.943-8,15.638-10.7,8.628-4.065,18.173-4.973,27.484-4.939,9.856.039,19.712.9,29.547,1.41q6.974.357,13.947.679c9.8-5.553,20.071-10.436,30.758-13.437,8.429-2.366,17.7-3.789,26.2-.986a53.747,53.747,0,0,1,6.4,2.612,51.31,51.31,0,0,1,5.778-3.066c10.527-4.662,22.156-4.312,33.318-4.238,11.422.086,22.874.359,34.308.1a5.828,5.828,0,0,1,.727.03c9.834,1.016,19.634,2.482,29.486,3.4q5.981-2.134,12.1-3.819c12.607-3.464,25.832-4.757,37.751-10.66,4.852-2.4,9.588-5.142,14.306-7.776,2.932-2.015,5.895-3.974,8.944-5.774,22.329-13.156,47.183-11.612,71.618-9.324a5.2,5.2,0,0,0,.779.017c3.222-.164,6.517.074,9.7-.164,9.03-.666,18.367-2.573,26.636-6.708,12.585-6.3,26.39-21.018,18.06-37.085A23.694,23.694,0,0,0,760.316,128.159Zm-725,7.426a24.87,24.87,0,0,0-1.609,2.257c.147-.4.3-.787.48-1.176a.579.579,0,0,0,.3-.195c.424-.484.826-.995,1.228-1.492a.377.377,0,0,0,.121,0C35.664,135.187,35.487,135.377,35.318,135.585Zm466.745,73.85c-1.574-.026-3.148-.048-4.718-.073q8.252-.091,16.521.182C509.922,209.508,505.995,209.482,502.063,209.434Z" transform="translate(-30.649 -128.159)" fill="#e0ace2"/>
    </g>
    <path id="Path_11054" data-name="Path 11054" d="M177.22,20.592s-39.727-7.6-71.787,11.8c0,0-12.274,5.67,4.48,11.08s25.33,10.9,30.918,16.079C140.831,59.55,169.786,26.2,177.22,20.592Z" transform="translate(-13303.22 -21962.52)" fill="#2e3192"/>
    <path id="Path_11055" data-name="Path 11055" d="M165.224,33.524s-.943,40.437-26.662,67.691c0,0-8.131,10.8-9.886-6.716s-5.319-27.06-9.2-33.616C119.472,60.882,155.445,39.112,165.224,33.524Z" transform="translate(-13242.129 -21914.645)" fill="#2e3192"/>
    <path id="Path_11056" data-name="Path 11056" d="M275.8,9.488S193.256-9.389,107.392,110.515L141.938,153.3C277.247,94.638,276.187,9.973,276.187,9.973" transform="translate(-13282.292 -21998.158)" fill="url(#linear-gradient-2)"/>
    <circle id="Ellipse_3415" data-name="Ellipse 3415" cx="24.764" cy="24.764" r="24.764" transform="matrix(0.787, -0.617, 0.617, 0.787, -13108.729, -21938.193)" fill="url(#linear-gradient-3)"/>
    <path id="Path_11057" data-name="Path 11057" d="M47.97,201.405a95.143,95.143,0,0,1,190.285,0Z" transform="translate(-13479.856 -21672.801)" fill="#c128bd"/>
    <path id="Path_11058" data-name="Path 11058" d="M33.274,167.849a51.493,51.493,0,0,1,102.985,0Z" transform="translate(-13528.716 -21639.24)" fill="#c128bd"/>
    <g id="Group_3458" data-name="Group 3458" transform="translate(-13432.197 -21678.479)">
      <path id="Path_11059" data-name="Path 11059" d="M103.671,96.586c2.586,7.6,2.089,15.958.247,23.773-1.522,6.478-3.957,12.961-3.27,19.583.592,5.644,3.4,10.773,5.886,15.872,3.434,7.054,6.4,15.011,4.39,22.592a22.312,22.312,0,0,1-9.255,12.395,36.757,36.757,0,0,1-14.7,5.458c-7.452,1.233-15.833.631-21.451-4.416a30.622,30.622,0,0,1-5.043-6.4c-5.4-8.386-10.323-17.342-12.075-27.164-.644-3.62-.835-7.456.489-10.89,1.142-2.988,3.36-5.492,4.342-8.537,1.3-4.013.376-8.7,2.569-12.3,3.343-5.488,11.538-5.155,16.655-9.047,4.338-3.3,5.817-9.147,6.236-14.579.458-5.977-.545-22.588,8.892-22.541C94.87,80.42,101.647,90.635,103.671,96.586Z" transform="translate(-47.898 -80.381)" fill="#c128bd"/>
      <path id="Path_11060" data-name="Path 11060" d="M52.734,164.768A22.984,22.984,0,0,0,69.9,176.19q-.175-1.771-.342-3.542c-.887-9.294-1.462-18.614-1.609-27.934a.827.827,0,0,1-.177-.069c-8.654-5.691-13-16.754-13.645-26.714-.013-.212.316-.264.329-.052.727,10.284,6.2,18.1,13.485,24.837-.061-7.028.125-14.055.605-21.079a.657.657,0,0,1,.048-.618c.1-1.444.195-2.889.324-4.338a232.88,232.88,0,0,1,4.93-32.691c.035-.143.281-.1.259.052-1.31,9.571-2.772,19.042-3.464,28.69q-.253,3.484-.454,6.972a26.271,26.271,0,0,0,3.395-2.539,18.607,18.607,0,0,0,3.2-4.269,31.233,31.233,0,0,0,3.46-13,.123.123,0,0,1,.247.013c-.45,9.16-2.418,16.659-10.388,21.568-.368,6.868-.58,13.735-.528,20.612.065,9.489.8,18.908,1.661,28.323a21.931,21.931,0,0,0,12.2-26c-.03-.112.138-.151.173-.043a21.87,21.87,0,0,1-12.226,27.653c.887,9.579,1.868,19.15,2.366,28.777.532,10.319.45,20.841-1.57,31.013-.234,1.064-1.916.96-1.73-.164,2.941-17.922,1.349-35.735-.372-53.644A23.056,23.056,0,0,1,52.514,164.88.124.124,0,0,1,52.734,164.768Z" transform="translate(-32.597 -68.667)" fill="#454294"/>
    </g>
    <path id="Path_11064" data-name="Path 11064" d="M78.041,73.327h52.01a3.71,3.71,0,0,1,3.382,3.966V180.36a3.71,3.71,0,0,1-3.382,3.966H78.041a3.713,3.713,0,0,1-3.386-3.966V77.293A3.713,3.713,0,0,1,78.041,73.327Z" transform="translate(-13391.134 -21782.309)" fill="#fff" opacity="0.2"/>
    <g id="Group_3465" data-name="Group 3465" transform="translate(-12917.629 -21671.473)">
      <rect id="Rectangle_687" data-name="Rectangle 687" width="88.789" height="122.098" rx="3.391" transform="translate(88.791 122.098) rotate(180)" fill="#9797fc"/>
      <g id="Group_3464" data-name="Group 3464" transform="translate(0 0.002)">
        <rect id="Rectangle_688" data-name="Rectangle 688" width="77.564" height="106.661" rx="0.737" transform="translate(5.614 6.453)" fill="#f0f0ff" opacity="0.42"/>
        <path id="Path_11070" data-name="Path 11070" d="M175.754,82H246.8a8.871,8.871,0,0,1,8.87,8.87v2.361H166.88V90.871A8.872,8.872,0,0,1,175.754,82Z" transform="translate(-166.88 -82.001)" fill="#3b3b93"/>
        <g id="Group_3461" data-name="Group 3461" transform="translate(14.264 40.008)" opacity="0.42">
          <rect id="Rectangle_689" data-name="Rectangle 689" width="56.008" height="1.81" fill="#fff"/>
          <rect id="Rectangle_690" data-name="Rectangle 690" width="56.008" height="1.81" transform="translate(0 11.618)" fill="#fff"/>
          <rect id="Rectangle_691" data-name="Rectangle 691" width="44.383" height="1.811" transform="translate(11.625 3.872)" fill="#fff"/>
          <rect id="Rectangle_692" data-name="Rectangle 692" width="34.429" height="1.81" transform="translate(21.578 7.745)" fill="#fff"/>
        </g>
        <rect id="Rectangle_693" data-name="Rectangle 693" width="56.008" height="6.1" transform="translate(70.272 37.679) rotate(180)" fill="#fff" opacity="0.42"/>
        <rect id="Rectangle_694" data-name="Rectangle 694" width="6.1" height="6.1" transform="translate(70.272 37.679) rotate(180)" fill="#fff" opacity="0.42"/>
        <g id="Group_3463" data-name="Group 3463" transform="translate(16.286 58.06)" opacity="0.42">
          <rect id="Rectangle_695" data-name="Rectangle 695" width="0.531" height="17.594" transform="translate(33.473 14.442) rotate(-60.038)" fill="#fff"/>
          <rect id="Rectangle_696" data-name="Rectangle 696" width="2.718" height="6.82" transform="translate(43.443 27.634)" fill="#fff"/>
          <rect id="Rectangle_697" data-name="Rectangle 697" width="2.712" height="9.32" transform="translate(38.015 25.134)" fill="#fff"/>
          <rect id="Rectangle_698" data-name="Rectangle 698" width="2.714" height="14.774" transform="translate(32.584 19.679)" fill="#fff"/>
          <rect id="Rectangle_699" data-name="Rectangle 699" width="2.714" height="6.82" transform="translate(27.154 27.634)" fill="#fff"/>
          <rect id="Rectangle_700" data-name="Rectangle 700" width="2.716" height="19.663" transform="translate(21.722 14.791)" fill="#fff"/>
          <rect id="Rectangle_701" data-name="Rectangle 701" width="2.714" height="13.409" transform="translate(16.293 21.044)" fill="#fff"/>
          <rect id="Rectangle_702" data-name="Rectangle 702" width="2.716" height="23.07" transform="translate(10.861 11.383)" fill="#fff"/>
          <rect id="Rectangle_703" data-name="Rectangle 703" width="2.718" height="26.935" transform="translate(5.431 7.519)" fill="#fff"/>
          <rect id="Rectangle_704" data-name="Rectangle 704" width="2.718" height="31.138" transform="translate(0 3.315)" fill="#fff"/>
          <g id="Group_3462" data-name="Group 3462" transform="translate(1.515)">
            <path id="Path_11071" data-name="Path 11071" d="M171.351,95.426l16.352,10.1,4.77-1.457,5.994,8.3,4.688-2.967.294.2a1.566,1.566,0,0,0-.3.623l-.017-.009-4.844,3.071-6.085-8.425-4.6,1.4L171,96.006Z" transform="translate(-170.996 -95.426)" fill="#fff"/>
          </g>
          <path id="Path_11072" data-name="Path 11072" d="M178.173,99.549a1.053,1.053,0,1,0,1.051-1.051A1.047,1.047,0,0,0,178.173,99.549Z" transform="translate(-145.619 -85.212)" fill="#fff"/>
          <path id="Path_11073" data-name="Path 11073" d="M177.122,100.221a1.055,1.055,0,1,0,1.055-1.055A1.057,1.057,0,0,0,177.122,100.221Z" transform="translate(-149.114 -82.991)" fill="#fff"/>
          <path id="Path_11074" data-name="Path 11074" d="M175.739,98.389a1.055,1.055,0,1,0,1.055-1.055A1.05,1.05,0,0,0,175.739,98.389Z" transform="translate(-153.712 -89.082)" fill="#fff"/>
          <path id="Path_11075" data-name="Path 11075" d="M174.552,98.629a1.057,1.057,0,1,0,1.06-1.051A1.059,1.059,0,0,0,174.552,98.629Z" transform="translate(-157.658 -88.271)" fill="#fff"/>
        </g>
      </g>
    </g>
    <g id="Group_3466" data-name="Group 3466" transform="translate(-13287.09 -21752.227)">
      <rect id="Rectangle_705" data-name="Rectangle 705" width="79.664" height="38.091" transform="translate(139.386 220.381)" fill="url(#linear-gradient-4)"/>
      <rect id="Rectangle_706" data-name="Rectangle 706" width="137.774" height="9.336" transform="translate(110.331 258.471)" fill="url(#linear-gradient-5)"/>
      <rect id="Rectangle_707" data-name="Rectangle 707" width="358.436" height="220.381" rx="3.521" fill="#6161db"/>
      <rect id="Rectangle_708" data-name="Rectangle 708" width="326.632" height="180.413" transform="translate(16.553 14.829)" fill="#f1f0fe"/>
      <rect id="Rectangle_709" data-name="Rectangle 709" width="326.632" height="10.946" transform="translate(16.553 195.343)" fill="#0d3570" opacity="0.52"/>
    </g>
    <path id="Path_11085" data-name="Path 11085" d="M139.046,21.429" transform="translate(-13177.05 -21954.857)" fill="none" stroke="#603813" stroke-miterlimit="10" stroke-width="1.5"/>
    <rect id="Rectangle_710" data-name="Rectangle 710" width="58.048" height="9.829" rx="1.056" transform="translate(-13147.225 -21837.719) rotate(-128.917)" fill="#2e3192"/>
    <path id="Path_11086" data-name="Path 11086" d="M179.385,9.829l-.355-.437s-16.6-3.8-42.314,3.512c1.821,4.264,11.366,24.9,30.39,37.418C179.6,26.795,179.385,9.829,179.385,9.829Z" transform="translate(-13184.794 -21998.156)" fill="#2e3192"/>
    <path id="Path_11087" data-name="Path 11087" d="M163.548,57.632a23.5,23.5,0,1,1,3.52-33.045A23.5,23.5,0,0,1,163.548,57.632Z" transform="translate(-13222.8 -21973.408)" fill="#056093"/>
    <path id="Path_11088" data-name="Path 11088" d="M163.563,57.645a23.5,23.5,0,1,1,3.52-33.045A23.5,23.5,0,0,1,163.563,57.645Z" transform="translate(-13222.758 -21973.361)" fill="#056093"/>
    <path id="Path_11089" data-name="Path 11089" d="M158.671,22.191a19.128,19.128,0,1,0,.579,27.043A19.13,19.13,0,0,0,158.671,22.191Z" transform="translate(-13219.397 -21970)" fill="#e7c9fe"/>
    <path id="Path_11090" data-name="Path 11090" d="M250.268,119.106H89.274a20.183,20.183,0,0,0-20.123,20.123h0a20.183,20.183,0,0,0,20.123,20.123H250.268a20.183,20.183,0,0,0,20.123-20.123h0A20.183,20.183,0,0,0,250.268,119.106Z" transform="translate(-13409.434 -21630.107)" fill="#252da2"/>
    <path id="Path_11091" data-name="Path 11091" d="M106.647,108.307a7.432,7.432,0,0,1-7.4,7.421H84.573a7.419,7.419,0,0,1,0-14.838H99.247A7.42,7.42,0,0,1,106.647,108.307Z" transform="translate(-13382.819 -21690.668)" fill="#a660f6"/>
    <g id="Group_3467" data-name="Group 3467" transform="translate(-13369.205 -21883.176)">
      <path id="Path_11092" data-name="Path 11092" d="M71.012,100.567A3.3,3.3,0,0,0,69.144,98.3l-.121-.065a2.258,2.258,0,0,0-2.733.13,11.2,11.2,0,0,1,.432-1.124.5.5,0,0,0-.9-.432c-.865,1.76-1.557,3.814-.545,5.67a3.057,3.057,0,0,0,5.739-1.907Z" transform="translate(-54.792 178.004)" fill="#ff51ab"/>
      <path id="Path_11093" data-name="Path 11093" d="M88.8,109.638c-7.3-2.954-14-6.6-21-10.155-.476-.238-.96.45-.528.791,6.011,4.74,13.921,8.152,21.222,10.3C89.03,110.737,89.324,109.85,88.8,109.638Z" transform="translate(-47.047 187.668)" fill="#ff51ab"/>
      <path id="Path_11094" data-name="Path 11094" d="M89.541,52.5a1.78,1.78,0,0,0,.294-.8.382.382,0,0,0-.017-.242,1.074,1.074,0,0,0-.618-.683,2.221,2.221,0,0,0-2.011.1,2.684,2.684,0,0,0-.562.186,4.376,4.376,0,0,0-2.6,2.279,1.336,1.336,0,0,0,.722,1.855,2.95,2.95,0,0,0,2.461-.536c.082-.048.182-.112.285-.186A4.29,4.29,0,0,0,89.541,52.5Z" transform="translate(8.793 25.209)" fill="#ff51ab"/>
      <path id="Path_11095" data-name="Path 11095" d="M117.644,53.514c-1.592,1.444-4.351,1.881-5.246-.545-.822-2.214.675-3.949,2.374-5.138.13-1.717,3-1.444,3.966-.6C120.676,48.93,119.18,52.126,117.644,53.514Z" transform="translate(102.787 11.894)" fill="#ff51ab"/>
      <path id="Path_11096" data-name="Path 11096" d="M86.122,66.7a.73.73,0,0,0-.368-.562,4.582,4.582,0,0,0-6.167,1.349,2.881,2.881,0,0,0-.212.415,2.346,2.346,0,0,0-.765.9c-1.047,2.262.861,4.835,3.135,5.229a5.021,5.021,0,0,0,5.5-3.871A3.551,3.551,0,0,0,86.122,66.7Z" transform="translate(-9.761 74.812)" fill="#ff51ab"/>
      <path id="Path_11097" data-name="Path 11097" d="M107.161,35.026a.429.429,0,0,0-.32-.3c-.082-.013-.164-.017-.247-.026a.619.619,0,0,0,.022-.251c.056.052.056,0,0-.177a.614.614,0,0,0-.2-.255,1.722,1.722,0,0,0-.67-.281,2.091,2.091,0,0,0-.407-.043,3.317,3.317,0,0,0,.259-.294.22.22,0,1,0-.385-.212,2.258,2.258,0,0,1-.32.532,3.421,3.421,0,0,0-1.06.311,3.219,3.219,0,0,0-1.877,2.539,1.825,1.825,0,0,0,.389,2.2,1.883,1.883,0,0,0,1.92.091,2.326,2.326,0,0,0,.368-.078,3.927,3.927,0,0,0,1.8-1.427A2.421,2.421,0,0,0,107.161,35.026Z" transform="translate(68.184 -33.049)" fill="#ff51ab"/>
      <path id="Path_11098" data-name="Path 11098" d="M69.6,72.738a.461.461,0,0,0-.727-.19c-.026-.017-.069-.022-.1-.039-.043-.264-.238-.489-.562-.355A3.857,3.857,0,0,0,66,73.966a1.968,1.968,0,0,0-.35.744c-.121.58.026,1.73.735,1.9.822.2,1.92-.584,2.426-1.15A2.949,2.949,0,0,0,69.6,72.738Z" transform="translate(-52.008 96.832)" fill="#ff51ab"/>
      <path id="Path_11099" data-name="Path 11099" d="M103.2,54.742a8.244,8.244,0,0,0-.917.329c-.545,3.252-3.728,5.774-6.885,6.124-.385.052-.826-.4-.605-.787a13.865,13.865,0,0,1,6.669-6.068.527.527,0,0,1,.2-.091,11.974,11.974,0,0,1,1.241-.437A.488.488,0,0,1,103.2,54.742Z" transform="translate(44.82 35.901)" fill="#ff51ab"/>
      <path id="Path_11100" data-name="Path 11100" d="M282.51,72.945a21.215,21.215,0,0,0-5.319-8.55c-3.616-3.819-7.2-7.62-10.539-11.677-3.161-3.836-6.068-7.841-8.991-11.841-2.119-2.941-4.312-5.479-7.841-6.669a.58.58,0,0,0-.731.329c-11.089,1.444-19.422,9.5-27.172,16.957-.307.272.056.7.4.549,1.955-.822,3.875-1.717,5.869-2.487a4.246,4.246,0,0,1,.657-.2c-.934.731-2.725,2.227-2.872,2.335-.471.385-.93.77-1.388,1.172-1.587.93-3.161,1.916-4.7,2.941a26.876,26.876,0,0,0-9.592,7.819.434.434,0,0,0,.549.657c1.042-.584,2.1-1.129,3.144-1.7-1.06,1.388-2.119,2.794-3.179,4.182-24.889,26.13-49.994,52.079-74.555,78.538a.293.293,0,0,0,.056.4c-5.064,4.329-10.033,8.788-14.821,13.411-22.125,21.3-41.552,46.5-52.589,75.394-.182.51-.363,1-.545,1.514.221-1.267.428-2.547.649-3.814-.16.437-.311.874-.454,1.315-.272,1.393-.541,2.785-.817,4.182a95.513,95.513,0,0,0-4.64,19.185c0-.493.017-.969.017-1.44a.046.046,0,0,0-.091,0c-.147,1.825-.294,3.78-.385,5.808a70.067,70.067,0,0,0-.108,7.858,67.29,67.29,0,0,0,.748,8.55c-.108,3.365.822,6.816,1.665,10.051a69.938,69.938,0,0,0,2.448,7.421,15.422,15.422,0,0,0,3.049,7.162c.056.073.186.017.147-.074.091.164.164.329.238.476.164.307.64.091.476-.221-.839-1.626-1.591-3.291-2.322-4.952a65.84,65.84,0,0,1-1.73-9.186c-.977-2.513-.908-5.691-.631-8.619-2.629-26.593,10.518-53.013,25.131-74.524,14.414-21.217,32.834-39.45,53.009-55.167a343.051,343.051,0,0,1,33.53-22.934,19.738,19.738,0,0,1-3.27,3.8.835.835,0,0,0-.112.182c-.42.385-.822.753-1.241,1.133-.273.13-.532.26-.8.368-.29.147-.091.6.2.458,10.7-4.826,21.2-10.016,31.571-15.444,6.673-3.049,13.121-7.015,19.591-10.47a4.56,4.56,0,0,1,.363-.4c1.483-.856,2.962-1.7,4.459-2.556-1.3,1.682-2.595,3.343-3.871,5.043a.649.649,0,0,0,.8.951c1.682-.843,3.347-1.739,5.008-2.612a41.723,41.723,0,0,0,7.127-3.473c.437-.277,1.332-1.06,2.154-1.609.2-.108.4-.238.605-.346a1.022,1.022,0,0,1,.748-.147c.221.074-.675,5.428-.748,5.921a.544.544,0,0,0,.856.51c12.7-7.858,25.585-17.36,35.852-28.6-.2.385-.385.787-.6,1.168a2.729,2.729,0,0,1,.528-.052c.221-.221.458-.424.7-.64.4-.8.787-1.609,1.15-2.448.93-1.081,1.864-2.175,2.759-3.291a.713.713,0,0,0,.657-.8c.039-.056.073-.091.108-.147A.393.393,0,0,0,282.51,72.945Z" transform="translate(-62.463 -29.299)" fill="#ff51ab"/>
    </g>
    <g id="Group_3468" data-name="Group 3468" transform="translate(-13067.066 -21876.961)">
      <path id="Path_11101" data-name="Path 11101" d="M132.326,34.486" transform="translate(-132.326 -34.486)" fill="none" stroke="#603813" stroke-miterlimit="10" stroke-width="1"/>
    </g>
    <path id="Path_11102" data-name="Path 11102" d="M110.036,89.445a257.611,257.611,0,0,1,70.705-69.114c5.056-3.317,10.388-6.513,16.335-7.616,1.073.558,1.237,2.24.839,3.382a6.912,6.912,0,0,1-2.232,2.8,119.65,119.65,0,0,1-11.041,7.875c-24.119,16.322-46.53,37.167-65.395,59.357-1.708,2.011-.636,5.458-3.179,6.171S110.2,92.083,110.036,89.445Z" transform="translate(-13273.501 -21983.83)" opacity="0.71" fill="url(#linear-gradient-6)" style="mix-blend-mode: screen;isolation: isolate"/>
    <path id="Path_11103" data-name="Path 11103" d="M127.4,27.01a4.659,4.659,0,0,0-1.626,1.522,1.77,1.77,0,0,0,.164,2.085,2.635,2.635,0,0,0,2.5.212,62.4,62.4,0,0,0,6.029-1.955,11.4,11.4,0,0,0,3.646-1.985,2.392,2.392,0,0,0,.848-1.328,2,2,0,0,0-1.527-2.028C134.238,22.6,129.926,25.362,127.4,27.01Z" transform="translate(-13222.037 -21948.49)" opacity="0.71" fill="url(#linear-gradient-7)" style="mix-blend-mode: screen;isolation: isolate"/>
    <path id="Path_11104" data-name="Path 11104" d="M129.611,27s21.745-5.419,38.438-5.2L134.766,36.186Z" transform="translate(-13208.419 -21953.641)" opacity="0.71" fill="url(#linear-gradient-8)" style="mix-blend-mode: screen;isolation: isolate"/>
    <path id="Path_11105" data-name="Path 11105" d="M205.035,150.15c-8.39-14.674-61.546-13.1-72.185-5.67-4.139,2.893-6.587,8.81-4.044,13.173,1.717,2.945,5.116,4.407,8.347,5.505C146.382,166.3,218.074,172.958,205.035,150.15Z" transform="translate(-13214.534 -21564.125)" fill="#e0ace2"/>
    <path id="Path_11106" data-name="Path 11106" d="M156.453,137.236c-6.7-11.716-49.134-10.462-57.627-4.528-3.3,2.309-5.259,7.036-3.226,10.518,1.371,2.353,4.087,3.52,6.66,4.4C109.633,150.133,166.863,155.443,156.453,137.236Z" transform="translate(-13324.251 -21599.553)" fill="#e0ace2"/>
    <path id="Path_11107" data-name="Path 11107" d="M204.726,133.843c-5.994-10.483-43.953-9.363-51.551-4.052-2.958,2.067-4.705,6.293-2.889,9.406,1.224,2.106,3.654,3.148,5.96,3.936C162.841,145.377,214.038,150.13,204.726,133.843Z" transform="translate(-13142.137 -21607.711)" fill="#e0ace2"/>
    <g id="Group_3471" data-name="Group 3471" transform="translate(-13201.264 -21718.16)">
      <path id="Path_11109" data-name="Path 11109" d="M194.058,71.2H110.049c-4.835,0-8.753,5.847-8.753,13.056V203.037c0,7.209,3.918,13.056,8.753,13.056h84.008c4.835,0,8.753-5.847,8.753-13.056V84.261C202.811,77.052,198.893,71.2,194.058,71.2Z" transform="translate(-101.296 -71.205)" fill="#6969d1" opacity="0.34"/>
      <g id="Group_3469" data-name="Group 3469" transform="translate(13.428 15.869)" opacity="0.74">
        <rect id="Rectangle_711" data-name="Rectangle 711" width="68.976" height="4.844" fill="#f0f0ff"/>
        <rect id="Rectangle_712" data-name="Rectangle 712" width="68.976" height="4.844" transform="translate(0 31.085)" fill="#f0f0ff"/>
        <rect id="Rectangle_713" data-name="Rectangle 713" width="54.659" height="4.844" transform="translate(0 10.362)" fill="#f0f0ff"/>
        <rect id="Rectangle_714" data-name="Rectangle 714" width="42.401" height="4.844" transform="translate(0 20.723)" fill="#f0f0ff"/>
      </g>
      <g id="Group_3470" data-name="Group 3470" transform="translate(13.428 71.006)" opacity="0.54">
        <rect id="Rectangle_715" data-name="Rectangle 715" width="68.976" height="4.844" fill="#f0f0ff"/>
        <rect id="Rectangle_716" data-name="Rectangle 716" width="68.976" height="4.844" transform="translate(0 31.085)" fill="#f0f0ff"/>
        <rect id="Rectangle_717" data-name="Rectangle 717" width="54.659" height="4.844" transform="translate(0 10.362)" fill="#f0f0ff"/>
        <rect id="Rectangle_718" data-name="Rectangle 718" width="42.401" height="4.844" transform="translate(0 20.723)" fill="#f0f0ff"/>
      </g>
    </g>
    <g id="Group_3472" data-name="Group 3472" transform="translate(-12837.925 -21610.258)">
      <path id="Path_11110" data-name="Path 11110" d="M209.111,96.155a13.454,13.454,0,0,1,13.043,11.582c.484,4.45-1.315,9.138.251,13.329,1.95,5.211,8.1,7.318,11.988,11.3,5.678,5.8,5.821,15.712,1.315,22.463-2.132,3.192-5.263,6.133-5.371,9.969-.125,4.372,3.689,7.659,6.3,11.171,3.533,4.757,4.913,11.923,1.042,16.408-2.318,2.686-5.912,3.788-9.117,5.3A33.382,33.382,0,0,0,215.386,208.9a69.17,69.17,0,0,0-16.6-13.247,45.863,45.863,0,0,1-6.937-4.55c-6.76-5.942-7.685-17.1-2.694-24.595,1.055-1.587,2.361-3.1,2.755-4.956.752-3.546-1.976-6.747-3.806-9.873a19.3,19.3,0,0,1-1.877-15.772,17.015,17.015,0,0,1,8.476-9.61,25.529,25.529,0,0,0,3.91-1.985c2.98-2.175,3.853-6.241,3.845-9.93s-.675-7.43.164-11.02S205.422,96.194,209.111,96.155Z" transform="translate(-185.31 -96.155)" fill="url(#linear-gradient-9)"/>
      <path id="Path_11111" data-name="Path 11111" d="M187.338,167.846c1.777,4.342,5.172,7.369,9.143,9.713a43.266,43.266,0,0,0,6.6,3.088c1.972.753,4.208,1.2,6.107,2.149q.02-7.843-.078-15.682-.039-3.743-.078-7.49a20.306,20.306,0,0,1-13.251-8.97c-3.667-5.445-4.649-11.772-5.069-18.186-.009-.108.182-.125.19-.017,1.085,10.907,6.241,23.548,18.116,25.884-.121-11.413-.3-22.822-.943-34.213-.458-8.074-1.2-16.045-2.392-24.041a.131.131,0,0,1,.259-.039c2.837,14.172,3.758,28.587,4.139,43.005,8.429-2.119,13.8-12.2,12.87-20.534a.136.136,0,0,1,.268-.043c1.393,8.706-3.814,20.162-13.1,21.879.087,3.581.143,7.166.19,10.747.1,7.8.2,15.612.212,23.414,1.354-.74,2.962-.995,4.355-1.734a19.535,19.535,0,0,0,3.957-2.807,17.071,17.071,0,0,0,5.518-10.5.111.111,0,0,1,.221.013A18.588,18.588,0,0,1,220.167,174c-2.063,2.4-6.176,5.748-9.588,5.4l-.056-.017c.009,10.384-.147,20.767-.7,31.138-.043.826-1.328.813-1.284-.013.445-8.822.618-17.654.653-26.485a29.127,29.127,0,0,1-6.92-2.232,35.238,35.238,0,0,1-7.214-3.715,21.09,21.09,0,0,1-7.893-10.142C187.122,167.816,187.29,167.725,187.338,167.846Z" transform="translate(-179.175 -83.586)" fill="#362c67"/>
    </g>
    <g id="Group_3473" data-name="Group 3473" transform="translate(-12920.31 -21518.857)">
      <path id="Path_11112" data-name="Path 11112" d="M187.927,122.547c-11.945,0-21.667,10.488-21.667,23.393v.493h20.015v-.493c0-.164.009-.324.009-.489a48.859,48.859,0,0,1,5.211-21.589c.147-.3.311-.6.48-.9A20.531,20.531,0,0,0,187.927,122.547Z" transform="translate(-166.26 -99.807)" fill="url(#linear-gradient-10)"/>
      <path id="Path_11113" data-name="Path 11113" d="M206.5,124.663c-.346,0-.67.026-1,.056a9.007,9.007,0,0,0-1.012.13,12.581,12.581,0,0,0-5.683,2.508,14.546,14.546,0,0,0-5.484,11.058c-.013.164-.03.324-.03.489v.493H219.7V138.9C219.7,131.051,213.767,124.663,206.5,124.663Z" transform="translate(-76.408 -92.772)" fill="url(#linear-gradient-11)"/>
      <path id="Path_11115" data-name="Path 11115" d="M213.569,117.289c-15.8,0-29.6,9.328-36.981,23.15-.169.307-.333.6-.48.9a48.858,48.858,0,0,0-5.211,21.589c0,.164-.009.324-.009.489v.493H218.5v-.493c0-.164.009-.324.009-.489.208-15.561,9.93-28.673,23.151-32.842.35-.108.7-.225,1.06-.324A40.889,40.889,0,0,0,213.569,117.289Z" transform="translate(-150.873 -117.289)" fill="url(#linear-gradient-11)"/>
      <path id="Path_11116" data-name="Path 11116" d="M214.04,119.928a30.218,30.218,0,0,0-7.923,1.064c-.355.1-.709.216-1.06.324-13.221,4.169-22.943,17.282-23.15,32.842,0,.164-.009.324-.009.489v.493h49.246v-.493c0-.164.017-.324.03-.489a14.546,14.546,0,0,1,5.484-11.058,12.581,12.581,0,0,1,5.683-2.508,9.008,9.008,0,0,1,1.012-.13C238.319,128.374,227.074,119.928,214.04,119.928Z" transform="translate(-114.267 -108.515)" fill="url(#linear-gradient-11)"/>
      <circle id="Ellipse_3417" data-name="Ellipse 3417" cx="4.168" cy="4.168" r="4.168" transform="translate(148.498 38.76)" fill="#dc2080"/>
    </g>
    <g id="Group_3474" data-name="Group 3474" transform="translate(-13078.646 -21659.91)">
      <path id="Path_11117" data-name="Path 11117" d="M135.838,84.674a26.76,26.76,0,0,1,12.49,50.427l-12.49-23.665Z" transform="translate(-109.069 -84.674)" fill="#93034d"/>
      <path id="Path_11118" data-name="Path 11118" d="M130.5,97.942a26.74,26.74,0,0,1,23.1-13.268v26.762Z" transform="translate(-126.83 -84.674)" fill="#6106c9"/>
      <path id="Path_11119" data-name="Path 11119" d="M133.386,115.059c-1.976-4.026-3.985-9.371-3.691-14.172.3-4.913,1.136-8.726,3.691-12.536l23.142,13.306Z" transform="translate(-129.666 -74.943)" fill="#c128bd"/>
      <path id="Path_11120" data-name="Path 11120" d="M160.643,114.527a26.746,26.746,0,0,1-28.509-2.24l16.019-21.425Z" transform="translate(-121.384 -64.1)" fill="#f0f"/>
      <path id="Path_11121" data-name="Path 11121" d="M130.46,104.083l23.258-13.221L137.7,112.287A26.876,26.876,0,0,1,130.46,104.083Z" transform="translate(-126.95 -64.1)" fill="#a660f6"/>
    </g>
    <g id="Group_3476" data-name="Group 3476" transform="translate(-13080.839 -21714.09)">
      <rect id="Rectangle_719" data-name="Rectangle 719" width="19.662" height="0.593" transform="matrix(0.866, -0.499, 0.499, 0.866, 0, 25.449)" fill="#808285"/>
      <rect id="Rectangle_720" data-name="Rectangle 720" width="3.038" height="7.622" transform="translate(3.151 30.885)" fill="#dc2080"/>
      <rect id="Rectangle_721" data-name="Rectangle 721" width="3.031" height="10.415" transform="translate(9.224 28.091)" fill="#350838"/>
      <rect id="Rectangle_722" data-name="Rectangle 722" width="3.033" height="16.511" transform="translate(15.291 21.996)" fill="#c128bd"/>
      <rect id="Rectangle_723" data-name="Rectangle 723" width="3.033" height="7.622" transform="translate(21.359 30.885)" fill="#350838"/>
      <rect id="Rectangle_724" data-name="Rectangle 724" width="3.035" height="21.974" transform="translate(27.428 16.533)" fill="#c128bd"/>
      <rect id="Rectangle_725" data-name="Rectangle 725" width="3.033" height="14.985" transform="translate(33.497 23.521)" fill="#350838"/>
      <rect id="Rectangle_726" data-name="Rectangle 726" width="3.036" height="25.782" transform="translate(39.566 12.724)" fill="#c128bd"/>
      <rect id="Rectangle_727" data-name="Rectangle 727" width="3.038" height="30.101" transform="translate(45.632 8.406)" fill="#350838"/>
      <rect id="Rectangle_728" data-name="Rectangle 728" width="3.038" height="34.799" transform="translate(51.701 3.708)" fill="#dc2080"/>
      <g id="Group_3475" data-name="Group 3475" transform="translate(16.774)">
        <path id="Path_11122" data-name="Path 11122" d="M168.9,72.146,150.622,83.434l-5.332-1.626-6.7,9.272-5.237-3.317L133.02,88a1.609,1.609,0,0,1,.337.7l.017-.013,5.415,3.43,6.8-9.415,5.138,1.566,18.566-11.465Z" transform="translate(-133.02 -72.146)" fill="#808285"/>
      </g>
      <path id="Path_11123" data-name="Path 11123" d="M135.195,76.76a1.176,1.176,0,1,1-1.176-1.181A1.176,1.176,0,0,1,135.195,76.76Z" transform="translate(-116.838 -60.732)" fill="#dc2080"/>
      <path id="Path_11124" data-name="Path 11124" d="M136.373,77.507a1.178,1.178,0,1,1-1.181-1.181A1.179,1.179,0,0,1,136.373,77.507Z" transform="translate(-112.935 -58.249)" fill="#dc2080"/>
      <path id="Path_11125" data-name="Path 11125" d="M137.922,75.459a1.181,1.181,0,1,1-1.181-1.181A1.179,1.179,0,0,1,137.922,75.459Z" transform="translate(-107.798 -65.058)" fill="#dc2080"/>
      <path id="Path_11126" data-name="Path 11126" d="M139.244,75.732a1.179,1.179,0,1,1-1.176-1.181A1.179,1.179,0,0,1,139.244,75.732Z" transform="translate(-103.39 -64.15)" fill="#dc2080"/>
    </g>
    <g id="Group_3479" data-name="Group 3479" transform="translate(-13003.558 -21588.938)">
      <rect id="Rectangle_729" data-name="Rectangle 729" width="126.553" height="4.248" transform="translate(0 58.516)" fill="#754c24"/>
      <rect id="Rectangle_730" data-name="Rectangle 730" width="15.347" height="3.638" transform="translate(34.596 54.862)" fill="#1b1464"/>
      <path id="Path_11127" data-name="Path 11127" d="M202.993,137.411H156.722a2.287,2.287,0,0,1-2.253-1.877L149.66,109.5a2.291,2.291,0,0,1,2.253-2.707h46.271a2.287,2.287,0,0,1,2.253,1.873l4.809,26.035A2.293,2.293,0,0,1,202.993,137.411Z" transform="translate(-138.333 -82.095)" fill="#4e00df" opacity="0.62"/>
      <path id="Path_11128" data-name="Path 11128" d="M198.7,134.923h-42a2.081,2.081,0,0,1-2.046-1.7l-4.364-23.626a2.08,2.08,0,0,1,2.046-2.461h42a2.081,2.081,0,0,1,2.046,1.7l4.364,23.626A2.08,2.08,0,0,1,198.7,134.923Z" transform="translate(-136.216 -80.978)" fill="#f2f2f2" opacity="0.62"/>
      <g id="Group_3477" data-name="Group 3477" transform="translate(22.243 31.348)">
        <path id="Path_11129" data-name="Path 11129" d="M152.154,108.333l.329,1.587h24.4l-.33-1.587Z" transform="translate(-152.154 -108.333)" fill="#9269f7"/>
        <path id="Path_11130" data-name="Path 11130" d="M152.287,108.975l.329,1.587h11.663l-.33-1.587Z" transform="translate(-151.711 -106.198)" fill="#9269f7"/>
        <path id="Path_11131" data-name="Path 11131" d="M152.421,109.617l.33,1.587H163.3l-.329-1.587Z" transform="translate(-151.268 -104.064)" fill="#9269f7"/>
        <path id="Path_11132" data-name="Path 11132" d="M152.554,110.259l.33,1.587h8.647l-.329-1.587Z" transform="translate(-150.825 -101.929)" fill="#9269f7"/>
        <path id="Path_11133" data-name="Path 11133" d="M152.687,110.9l.33,1.587h6.664l-.33-1.587Z" transform="translate(-150.382 -99.794)" fill="#9269f7"/>
        <path id="Path_11134" data-name="Path 11134" d="M152.82,111.543l.329,1.587h28.164l-.33-1.587Z" transform="translate(-149.938 -97.66)" fill="#9269f7"/>
      </g>
      <g id="Group_3478" data-name="Group 3478" transform="translate(22.926)">
        <path id="Path_11135" data-name="Path 11135" d="M156.082,134.853c3.283,2.322,7.746,2.007,11.634.986a6.041,6.041,0,0,0,2.547-1.159c.848-.757,3.853-6.258,3.239-7.356-.714-1.267-2.426-.1-3.482.407-2.076,1-3.931,2.4-5.968,3.464C163.175,131.648,156.623,135.168,156.082,134.853Z" transform="translate(-139.778 -15.746)"/>
        <path id="Path_11136" data-name="Path 11136" d="M163.427,129.171l-11.115,2.214a11.3,11.3,0,0,0,5.972,2.893,33.783,33.783,0,0,0,6.712.355,5.217,5.217,0,0,0,5.864-3.278c.67-1.2,1.375-2.4,1.985-3.637-1.384-.433-3.148-1.358-4.666-1.012C166.411,127.108,165.33,128.8,163.427,129.171Z" transform="translate(-152.312 -16.15)"/>
        <path id="Path_11137" data-name="Path 11137" d="M166.989,109.039c.052.471.108.943.16,1.414a7.647,7.647,0,0,0,5.246-.428,5.827,5.827,0,0,1-1.263-4,13.355,13.355,0,0,0-3.633,1.855,1.169,1.169,0,0,0-.432.463,1.192,1.192,0,0,0-.056.48c0,.631.009,1.263.013,1.9" transform="translate(-103.515 -84.675)" fill="url(#linear-gradient-14)"/>
        <path id="Path_11138" data-name="Path 11138" d="M212.845,116.072a30.686,30.686,0,0,1-2.552,10.189,15.379,15.379,0,0,1-7.162,7.469,24.313,24.313,0,0,1-6.323,1.613q-3.451.564-6.907,1.12a3.473,3.473,0,0,0-1.336.415,3.56,3.56,0,0,0-.891,1.008c-6.535,9.545-16.88,16.058-23.077,25.823a9.618,9.618,0,0,0-5.683-.247,145.7,145.7,0,0,1,18.19-26.593,26.546,26.546,0,0,1,3.365-3.464,24.382,24.382,0,0,1,5.138-3.019c4.528-2.115,9.268-3.78,13.666-6.15,2.521-1.358,4.917-2.945,7.309-4.524C208.585,118.39,210.842,117.4,212.845,116.072Z" transform="translate(-130.359 -51.254)" fill="url(#linear-gradient-15)"/>
        <path id="Path_11139" data-name="Path 11139" d="M165.593,115.137a13.51,13.51,0,0,0,.917,6.037,5.3,5.3,0,0,0,4.8,3.257c2.171-.138,3.806-1.981,5.043-3.771a35.788,35.788,0,0,0,3.014-5.22,14.432,14.432,0,0,0,1.6-7.711c-.666-5.328-6.219-7.815-10.933-5.436C165.965,104.342,165.662,111.249,165.593,115.137Z" transform="translate(-108.178 -100.076)" fill="#ffb176"/>
        <path id="Path_11140" data-name="Path 11140" d="M189.208,107.814c3.33,12.7,5.648,26.1,5.423,39.23-.009.48-1.107.593-1.578.683q-5.715,1.1-11.43,2.223c-.463.091-.9.19-1.328.29a1,1,0,0,1-1.224-.869c-1.323-10.937-6.353-21.087-11.3-30.961a25.615,25.615,0,0,0-3.209-5.285,1.013,1.013,0,0,1,.156-1.436c2.859-2.34,6.937-3.317,10.583-3.875,4.537-.692,8.671-1.6,13.113-.748A1.022,1.022,0,0,1,189.208,107.814Z" transform="translate(-112.34 -82.347)" fill="#c553dd"/>
        <path id="Path_11141" data-name="Path 11141" d="M170.458,107.95a49.32,49.32,0,0,1-7.56,20.867c-.134.208-.264.333-.407.536a13.872,13.872,0,0,0,6.69,3.105,56.818,56.818,0,0,0,7.849-12.654,67.985,67.985,0,0,1-5.211-9.091C171.349,109.732,170.93,108.932,170.458,107.95Z" transform="translate(-118.466 -78.258)" fill="#c553dd"/>
        <path id="Path_11142" data-name="Path 11142" d="M170.108,106.968c-.009.112-.2-.035-.117-.112s.216-.013.311.048l1.912,1.211a12.273,12.273,0,0,1,1.73,1.246,10.548,10.548,0,0,1,1.453,1.708,36.342,36.342,0,0,1,6.422,15.906,19.089,19.089,0,0,1-7.3,6.435,60.126,60.126,0,0,0-1.211-10.816A120.431,120.431,0,0,0,170.108,106.968Z" transform="translate(-93.603 -82.008)" fill="#c553dd"/>
        <path id="Path_11143" data-name="Path 11143" d="M223.169,116.18c-3.542,6.2-7.4,12.659-13.588,16.218a27.38,27.38,0,0,1-12.529,3.265,81.263,81.263,0,0,1-13.03-.839,2.9,2.9,0,0,0-1.583,1.085c-7.456,8.762-14.951,17.58-20.763,27.505a29.232,29.232,0,0,1-5.722-1.777c5.817-12.031,15.171-22.143,21.321-34.01.8-1.553,2.6-1.842,4.333-2.1a150.394,150.394,0,0,0,25.992-6.288c.394-.134.29-.277.709-.294,4.1-.186,7.975-1.825,11.98-2.729A4.533,4.533,0,0,1,223.169,116.18Z" transform="translate(-140.203 -51.657)" fill="url(#linear-gradient-16)"/>
        <path id="Path_11144" data-name="Path 11144" d="M177.97,111.546a8.687,8.687,0,0,1,.043,3.776c-.688,3.27-3.166,5.821-5.536,8.182a30.765,30.765,0,0,0-1.388-5.008,1.041,1.041,0,0,1-.048-.584,1.008,1.008,0,0,1,.246-.359A60.352,60.352,0,0,1,177.97,111.546Z" transform="translate(-90.126 -66.302)" fill="url(#linear-gradient-17)"/>
        <path id="Path_11145" data-name="Path 11145" d="M170.263,111.28q.876-.558,1.752-1.12a4.782,4.782,0,0,0-.532,3.339,1.625,1.625,0,0,1,2.171-.943,1.936,1.936,0,0,1,.943,2.279,2.4,2.4,0,0,1-1.989,1.583,1.26,1.26,0,0,0-.67.186,1.025,1.025,0,0,0-.277.549c-.441,1.674-.835,3.628.229,4.991a4.6,4.6,0,0,0,3.568,1.427,4.753,4.753,0,0,0,3.732-1.2,5.925,5.925,0,0,0,1.142-2.565q.616-2.322,1.228-4.653a28.941,28.941,0,0,0,.692-3.075,10.925,10.925,0,0,0-.878-6.513,7.349,7.349,0,0,0-5.069-3.979c-2.171-.389-4.39-.022-6.574-.394-1.514-.255-2.66-.156-3.59,1.246-2.309,3.477,1.289,6.98,4.666,7.365A2.23,2.23,0,0,0,170.263,111.28Z" transform="translate(-108.765 -101.084)" fill="#964a24"/>
        <path id="Path_11146" data-name="Path 11146" d="M182.243,112.864c-4.714,1.777-9.571,3.14-14.423,4.5a11.828,11.828,0,0,1-3.451.614c-.9-.022-1.782-.247-2.681-.264a5.906,5.906,0,0,0-5.06,2.807c3.365.026,6.478.156,9.843.177a4.818,4.818,0,0,0,.934-.052,7.381,7.381,0,0,0,.843-.229,4.255,4.255,0,0,1,1.323-.26c4.433.277,8.775-.7,12.974-1.652,1.959-.445,4.64-1.051,6.137-2.387A18.1,18.1,0,0,0,182.243,112.864Z" transform="translate(-137.966 -61.92)" fill="url(#linear-gradient-18)"/>
      </g>
    </g>
    <rect id="Rectangle_731" data-name="Rectangle 731" width="71.249" height="36.259" rx="1.498" transform="translate(-12934.657 -21504.893)" fill="#9797fc"/>
    <g id="Group_3480" data-name="Group 3480" transform="translate(-13092.043 -21587.266)">
      <path id="Path_11149" data-name="Path 11149" d="M146.268,111.961a.492.492,0,0,1,.052.26.547.547,0,0,1-.156.255,11.633,11.633,0,0,1-3.192,2.418,1.3,1.3,0,0,1-.662.19c-.355-.03-1.959-.074-2.184-.355-1.137-1.406-1.6-4.191-2.729-5.6,1.22-.592,5.332-2.1,6.587-1.959C145.113,107.3,145.857,110.862,146.268,111.961Z" transform="translate(-90.486 -82.544)" fill="url(#linear-gradient-19)"/>
      <path id="Path_11150" data-name="Path 11150" d="M151.291,147.5a3.254,3.254,0,0,1-2.448,1.946,9.665,9.665,0,0,1-3.252-.035l-6.465-.8a15.7,15.7,0,0,1-2.5-.454,14.431,14.431,0,0,1-3.611-1.855,6.188,6.188,0,0,1-2.028-1.825,2.177,2.177,0,0,1,.091-2.556,2.786,2.786,0,0,1,1.8-.692,8.994,8.994,0,0,1,4.411.653,20.129,20.129,0,0,0,2.4,1.073,2.6,2.6,0,0,0,2.482-.394c.679-.631,1.021-1.864,1.946-1.829a2.02,2.02,0,0,1,.865.329c1.479.791,3.667.151,4.831,1.042C150.819,142.865,151.68,146.359,151.291,147.5Z" transform="translate(-113.028 29.049)"/>
      <path id="Path_11151" data-name="Path 11151" d="M159.323,146.219a6.169,6.169,0,0,1,.324,2.452,2.537,2.537,0,0,1-1.284,2.007,3.89,3.89,0,0,1-2.115.169q-6.312-.694-12.624-1.38a5.887,5.887,0,0,1-2.556-.679,5.955,5.955,0,0,1-1.834-2.3,1.349,1.349,0,0,1-.2-.545c-.022-.489.476-.822.921-1.021a12.5,12.5,0,0,1,7.261-.9,6.544,6.544,0,0,0,1.912.2,1.647,1.647,0,0,0,1.449-1.094c.151-.6-.186-1.207-.255-1.825a.616.616,0,0,1,.121-.5.691.691,0,0,1,.471-.147c1.626-.1,4.736-.887,6.011.017C157.857,141.341,159.323,145.09,159.323,146.219Z" transform="translate(-85.057 27.455)"/>
      <path id="Path_11152" data-name="Path 11152" d="M154.069,119.692a79.466,79.466,0,0,1,.692,25.4c-.463,3.438-1.146,6.846-1.661,10.276-2.642,17.7-.6,35.826,3.434,53.264-2.772,1.12-3.9,1.648-6.881,1.86-4.865-17.342-10.055-35.3-10.457-53.013a108.1,108.1,0,0,1,.428-13.389c.752-7.408,2.556-14.765,2.167-22.2C145.9,121.015,149.96,120.561,154.069,119.692Z" transform="translate(-84.638 -40.89)" fill="url(#linear-gradient-20)"/>
      <path id="Path_11153" data-name="Path 11153" d="M165.954,120.244c.424,6.5-2.439,12.715-5.207,18.618-5.471,11.677-10.859,23.535-13.51,36.155-.869,4.117-1.436,8.295-2,12.464q-1.388,10.2-2.776,20.4c-.125.934.009,2.236.947,2.34a7.849,7.849,0,0,1-5.008,1.323,23.605,23.605,0,0,1-5.255-.761c2.53-21.637,5.7-43.914,9.618-65.338.541-2.967,1.094-5.929,1.795-8.866,1.3-5.471,3.105-10.911,3.135-16.538C153.819,120.119,159.83,120.166,165.954,120.244Z" transform="translate(-104.636 -39.717)" fill="url(#linear-gradient-21)"/>
      <path id="Path_11154" data-name="Path 11154" d="M149.542,131.229a16.827,16.827,0,0,1-3.927,1.8,5.5,5.5,0,0,1-2.3.307c-2.119-.281-3.369-2.448-4.316-4.364q-2.828-5.722-5.916-11.318a5.23,5.23,0,0,0-.826-1.2,9.177,9.177,0,0,0-1.544-1,5.367,5.367,0,0,1-2.089-2.56,51.342,51.342,0,0,1,8.931-.229,3.828,3.828,0,0,1-1.747,1.924c1.6,2.271,3.187,4.753,4.839,6.985a9.6,9.6,0,0,0,2.733,2.772A5.611,5.611,0,0,0,146,129.456a11.446,11.446,0,0,0,1.5.74l2.275.99C149.723,131.346,149.589,131.073,149.542,131.229Z" transform="translate(-119.647 -64.567)" fill="url(#linear-gradient-22)"/>
      <path id="Path_11155" data-name="Path 11155" d="M153.383,119.728a22.592,22.592,0,0,0-3.979-1.79,18.4,18.4,0,0,1-9.342-8.836c-2.046-.683-4.537.13-6.491-.783a10.518,10.518,0,0,0-2.111-.515c-.943-.19-1.367-.381-1.051.229a10.087,10.087,0,0,0,.8.99c.757.986,1.717,1.163,2.776,1.816a8.961,8.961,0,0,0,2.167,5.834,3.277,3.277,0,0,0,2.353.787c.956.1,1.929.048,2.876.221.212.039.433.346.225.389a45.2,45.2,0,0,0,6.388,4.316C149.24,120.558,151.661,121.121,153.383,119.728Z" transform="translate(-114.065 -81.03)" fill="url(#linear-gradient-23)"/>
      <path id="Path_11156" data-name="Path 11156" d="M149.164,116.166a11.534,11.534,0,0,1-1.345,5.921,4.975,4.975,0,0,1-5.177,2.482q-.376-3.918-.748-7.845a1.137,1.137,0,0,1,.134-.822,1.177,1.177,0,0,1,.865-.3c2.154-.156,4.212-1.514,6.18-1.648A11.427,11.427,0,0,1,149.164,116.166Z" transform="translate(-75.59 -59.961)" fill="url(#linear-gradient-24)"/>
      <path id="Path_11157" data-name="Path 11157" d="M153.937,112.652a15.214,15.214,0,0,1-1.566,12.191c-1.211,2.037-3.261,4.048-6,4.156-2.919.117-4.619,1.929-6.132-.143-3.127-4.277-5.354-13.2-5.164-18.2.1-2.651.8-5.462,3.062-7.33C145.2,97.485,152.523,107.968,153.937,112.652Z" transform="translate(-98.241 -101.036)" fill="#ffb176"/>
      <path id="Path_11158" data-name="Path 11158" d="M133.712,116.156a128.534,128.534,0,0,1,11.672,40.138c.247,2.033.683,3.689.294,5.7,8.952.817,17.455-1.406,26.3-3,.238-.039.285-.355.281-.592-.29-11.5-2.712-22.839-3.326-34.317-.277-5.216-.19-10.531-1.743-15.513a14.149,14.149,0,0,0-4.372-.45A62.624,62.624,0,0,0,133.712,116.156Z" transform="translate(-102.741 -79.378)" fill="#231e3c"/>
      <path id="Path_11159" data-name="Path 11159" d="M141.37,108.14c3.386,1.739,5.069,5.562,6.366,9.138a155.247,155.247,0,0,1,4.593,14.99,10.324,10.324,0,0,1-7.78,3.62C143.152,126.581,142.261,117.512,141.37,108.14Z" transform="translate(-77.28 -79.298)" fill="#3f3d66"/>
      <path id="Path_11160" data-name="Path 11160" d="M140.4,109.934a4.749,4.749,0,0,0-2.11,2.552c-3.084,6.768-2.854,14.739-6.275,21.343.069-.182-.052-.346-.208-.463a4.418,4.418,0,0,0,1.116,2.526,14.526,14.526,0,0,0,2.612,2.88,5.483,5.483,0,0,0,3.6,1.272.267.267,0,0,0,.225-.1c.047-.073-.043-.195-.112-.143.195.216.463-.359.623-.6A107.349,107.349,0,0,0,146.7,127.86a104.684,104.684,0,0,0-2.647-10.73C143.219,114.492,142.311,111.941,140.4,109.934Z" transform="translate(-109.065 -73.333)" fill="#3f3d66"/>
      <path id="Path_11161" data-name="Path 11161" d="M135.617,133.048h16.3a1.423,1.423,0,0,0,1.354-1.864l-7.642-23.535a1.423,1.423,0,0,0-1.354-.982h-16.3a1.421,1.421,0,0,0-1.354,1.86l7.642,23.535A1.422,1.422,0,0,0,135.617,133.048Z" transform="translate(-126.551 -84.195)" fill="#ccc"/>
      <path id="Path_11162" data-name="Path 11162" d="M134.844,106.146a4.169,4.169,0,0,0,.921,4.519,8.94,8.94,0,0,0,8.693,2.482,3.122,3.122,0,0,0,.887,2.227,2.313,2.313,0,0,1,.58-1.851c.471-.13.562.554.445.969a3.5,3.5,0,0,0,.247,2.513c-.143-.93,1.129-1.717,2.167-1.449a2.033,2.033,0,0,1,1.5,2.232,3.4,3.4,0,0,1-1.795,2.245,2.292,2.292,0,0,1-2.1.281,18.816,18.816,0,0,0,1.855,7.625,10.231,10.231,0,0,0,9.238.9,4.2,4.2,0,0,0,1.505-.943,4.434,4.434,0,0,0,.9-1.8,10.816,10.816,0,0,0,.735-5.436c-.186-.848-.575-1.661-.688-2.521-.177-1.358.35-2.7.493-4.065.407-3.923-2.439-7.586-5.869-10.168a11.4,11.4,0,0,0-4.606-2.288c-2.5-.484-5.051.3-7.529.861s-5.324.843-7.4-.458C134.2,103.348,133.785,104.961,134.844,106.146Z" transform="translate(-101.08 -101.471)" fill="#964a24"/>
    </g>
    <g id="Group_3481" data-name="Group 3481" transform="translate(-13256.114 -21607.441)">
      <path id="Path_11163" data-name="Path 11163" d="M107.307,126.963a46.681,46.681,0,0,0,7.274,8.048,16.144,16.144,0,0,0,9.908,3.948c-.052,2.547-2.586,4.493-5.121,4.744s-5.008-.765-7.3-1.877-4.589-2.37-7.119-2.638a4.106,4.106,0,0,1-1.077-.19,3.18,3.18,0,0,1-1.566-2.383,21.491,21.491,0,0,1-.484-7.685c1.808.467,3.222-.242,5.012-.774C107.143,128.065,107.627,126.928,107.307,126.963Z" transform="translate(-45.183 3.454)"/>
      <path id="Path_11164" data-name="Path 11164" d="M93.174,119.393a25.568,25.568,0,0,0,3.568,8.524,14.33,14.33,0,0,0,7.183,5.631,21.174,21.174,0,0,0,6.262.774,117.594,117.594,0,0,0,12.217-.467c.368,12.576,3.585,24.69,7.348,36.7a14.156,14.156,0,0,0,7.036-2,232.451,232.451,0,0,1-1.406-40.891c.1-1.678-1.946-2.811-3.6-3.079a59.109,59.109,0,0,1-24.1-9.943C103.1,117.231,98.433,119.116,93.174,119.393Z" transform="translate(-73.45 -37.526)" fill="url(#linear-gradient-25)"/>
      <path id="Path_11165" data-name="Path 11165" d="M103.605,128.542a46.655,46.655,0,0,0,5.8,9.164,16.132,16.132,0,0,0,9.091,5.579c-.484,2.5-3.313,3.987-5.851,3.806s-4.8-1.609-6.872-3.1-4.122-3.114-6.569-3.81a4.033,4.033,0,0,1-1.025-.372,3.176,3.176,0,0,1-1.142-2.612,21.537,21.537,0,0,1,.83-7.659c1.7.77,3.218.316,5.073.091C103.251,129.6,103.925,128.559,103.605,128.542Z" transform="translate(-60.808 8.708)"/>
      <path id="Path_11166" data-name="Path 11166" d="M90.757,117.516a25.614,25.614,0,0,0,2.067,9.009,14.312,14.312,0,0,0,6.124,6.773,21.121,21.121,0,0,0,6.037,1.825,116.449,116.449,0,0,0,12.118,1.622c-1.777,12.455-.67,24.941.995,37.409a14.181,14.181,0,0,0,7.279-.774,232.575,232.575,0,0,1,5.57-40.536c.389-1.63-1.436-3.1-3.023-3.646a59.116,59.116,0,0,1-22.061-13.9C100.907,117.079,95.986,118.138,90.757,117.516Z" transform="translate(-81.485 -35.329)" fill="url(#linear-gradient-26)"/>
      <path id="Path_11167" data-name="Path 11167" d="M101.47,109.492c2.072-.156,4.035.856,5.83,1.894,5.514,3.183,10.769,6.933,16.758,9.091a26.7,26.7,0,0,1-6.548,2.214,48.368,48.368,0,0,0-6.344-3.365c-3.066-1.284-6.258-2.262-9.32-3.551a8.1,8.1,0,0,1-3.992-2.867C98.7,111.5,99.835,109.613,101.47,109.492Z" transform="translate(-57.89 -54.681)" fill="url(#linear-gradient-27)"/>
      <path id="Path_11168" data-name="Path 11168" d="M121.457,111.938a10.566,10.566,0,0,0-5.843-6.21,25.668,25.668,0,0,0-8.52-1.942c-2.919-.277-5.955-.4-8.7.649a9.451,9.451,0,0,0-4.749,3.222,17.714,17.714,0,0,0-2.309,5.575,53.284,53.284,0,0,0-1.752,15.106c.065,2.245.268,4.485.484,6.725.735,7.62,1.635,15.383,4.826,22.346a2.192,2.192,0,0,0,.238.415,18.763,18.763,0,0,1,5.086-.835c7.1-.644,13.965-3.04,21.075-3.507-1.9-2.811-2.37-6.145-3-9.484-.419-2.236-.843-4.472-1.241-6.712a36.567,36.567,0,0,1-.571-4.16c-.074-1.25-.026-2.5.022-3.75.112-2.932.225-5.864.411-8.792.16-2.478.4-5.043,1.639-7.2A2.541,2.541,0,0,1,121.457,111.938Z" transform="translate(-85.441 -74.245)" fill="#3396cc"/>
      <path id="Path_11169" data-name="Path 11169" d="M99.8,104.093a2.251,2.251,0,0,1,1.691,1.522,5.712,5.712,0,0,1,.212,2.361c-.545,8.7-5.021,17.152-3.585,25.75a12.747,12.747,0,0,1-8.1,3.659,40.579,40.579,0,0,1,.765-23.7,20.727,20.727,0,0,1,1.57-3.542C94.053,107.207,96.436,103.643,99.8,104.093Z" transform="translate(-88.613 -72.709)" fill="#1d78a0"/>
      <path id="Path_11170" data-name="Path 11170" d="M99.5,104.909c1.54,1.648,2.279,3.862,3.118,5.955a50.783,50.783,0,0,0,7.46,12.806l-4.909,6.487a15.626,15.626,0,0,1-2.34-1.6q-2.6-2.115-5.207-4.234a10.716,10.716,0,0,1-1.916-1.838c.234-2.616.484-5.138.822-7.746.173-1.349.346-2.7.549-4.044C97.411,108.481,97.783,106.358,99.5,104.909Z" transform="translate(-65.028 -69.866)" fill="#1d78a0"/>
      <path id="Path_11171" data-name="Path 11171" d="M99.394,109.991a19.054,19.054,0,0,1-.048-4.468c-.052.467-3.468-1.591-3.741-2-.437-.662-.255-1.708-1.09-1.3-1.31.64-1.782,6.241-1.838,7.382A5.29,5.29,0,0,0,99.394,109.991Z" transform="translate(-75.099 -79.088)" fill="url(#linear-gradient-28)"/>
      <path id="Path_11172" data-name="Path 11172" d="M110.121,116.229a12.973,12.973,0,0,1-5.255,7.075c-2.621,1.574-6.306,1.765-8.714-.091-1.916-1.479-2.7-3.9-3.166-6.2-.99-4.909-.93-10.228,1.579-14.626A10.772,10.772,0,0,1,97.216,99.2a9.618,9.618,0,0,1,10.8-.346C114.009,102.8,112.015,110.724,110.121,116.229Z" transform="translate(-76.06 -94.944)" fill="#ffb176"/>
      <path id="Path_11173" data-name="Path 11173" d="M116.924,102.886a4.248,4.248,0,0,1-1.479,3.5,8.518,8.518,0,0,1-3.49,1.756,17.6,17.6,0,0,1-9.709-.082,2.338,2.338,0,0,1-3.014,2.461,2.609,2.609,0,0,1-2.223,3.166,5.373,5.373,0,0,0,1.263-3.118c-.052-1.142-1.228-2.275-2.279-1.821a2.089,2.089,0,0,0-.913.921,4.6,4.6,0,0,0,1.354,5.86c.147.1.324.247.272.42s-.385-.043-.216-.1a4.864,4.864,0,0,1-1.63,4.61.245.245,0,0,1-.195.091c-.069-.013-.108-.074-.143-.134a18.423,18.423,0,0,1-2.513-5.345,6.288,6.288,0,0,1,1.124-5.592,12.8,12.8,0,0,1,2.162-9.463,8.349,8.349,0,0,1,2.673-2.37,10.319,10.319,0,0,1,6.556-.575,26.632,26.632,0,0,1,6.072,1.825,13.746,13.746,0,0,0,2.906,1.073,3.424,3.424,0,0,0,2.924-.662,1.209,1.209,0,0,1,.467-.333c.532-.134.83.614.8,1.163C117.616,101.731,118.147,101.857,116.924,102.886Z" transform="translate(-78.001 -96.806)" fill="#964a24"/>
      <path id="Path_11174" data-name="Path 11174" d="M108.06,122.183l-12.745-2.56a.7.7,0,0,1,.052-1.375L127.7,114.36a.706.706,0,0,1,.493.13l5.6,4.078a.7.7,0,0,1-.346,1.259l-25.187,2.37A.817.817,0,0,1,108.06,122.183Z" transform="translate(-68.199 -38.457)" fill="#999"/>
      <path id="Path_11175" data-name="Path 11175" d="M127.333,114.362,95,118.246a.738.738,0,0,0-.138.043c.03.009.052.026.087.035l12.749,2.56a.614.614,0,0,0,.2.009l25.187-2.366a.666.666,0,0,0,.212-.056l-5.471-3.983A.682.682,0,0,0,127.333,114.362Z" transform="translate(-67.834 -38.455)" fill="#848484"/>
      <path id="Path_11176" data-name="Path 11176" d="M94.811,111.05a9.109,9.109,0,0,1,2.552,1.029,195.73,195.73,0,0,1,18.125,10.9c.921.623,2.249.061,3.334-.164a3.6,3.6,0,0,1,1.384-.134,3.07,3.07,0,0,1,1.133.58q1.258.882,2.517,1.769a4.477,4.477,0,0,1,1.773,1.851,1.548,1.548,0,0,1-.9,2.089c-1.566.285-2.418,1.682-3.91,2.227a3.541,3.541,0,0,1-1.881.277,3.431,3.431,0,0,1-2.08-1.76,9.65,9.65,0,0,0-1.583-2.305c-4.459-3.983-10.47-4.589-16.045-6.747a29.455,29.455,0,0,1-5.687-2.677,9.935,9.935,0,0,1-4.013-4.718A25.724,25.724,0,0,0,94.811,111.05Z" transform="translate(-85.565 -49.449)" fill="url(#linear-gradient-29)"/>
      <path id="Path_11177" data-name="Path 11177" d="M131.681,110.63l-25.789,1.894a1.561,1.561,0,0,0-1.358,1.038L97.74,132.674a1.561,1.561,0,0,0,1.617,2.08l25.473-2.361a1.569,1.569,0,0,0,1.315-1l7.11-18.648A1.563,1.563,0,0,0,131.681,110.63Z" transform="translate(-58.576 -50.859)" fill="#b7b7b7"/>
    </g>
    <g id="Group_4643" data-name="Group 4643" transform="translate(-12771.299 -21798.221)">
      <path id="Path_14504" data-name="Path 14504" d="M1645.524,257.507h95.363a9.031,9.031,0,0,1,9.031,9.031v42.845a9.031,9.031,0,0,1-9.031,9.031h-56.069L1661.6,341.637V318.414h-16.071a9.031,9.031,0,0,1-9.031-9.031V266.538A9.031,9.031,0,0,1,1645.524,257.507Z" transform="translate(-1636.493 -257.507)" fill="#dbc5fd"/>
      <path id="Path_14505" data-name="Path 14505" d="M1697.785,278.039h45.146a2.642,2.642,0,0,0,0-5.217h-45.146a2.642,2.642,0,0,0,0,5.217Zm45.146,3.607h-45.146a2.642,2.642,0,0,0,0,5.218h45.146a2.642,2.642,0,0,0,0-5.218Zm0,8.825h-45.146a2.438,2.438,0,0,0-2.222,2.609h0a2.439,2.439,0,0,0,2.222,2.609h45.146a2.44,2.44,0,0,0,2.223-2.609h0A2.439,2.439,0,0,0,1742.931,290.471Zm-20.746,8.825h-24.4a2.642,2.642,0,0,0,0,5.217h24.4a2.642,2.642,0,0,0,0-5.217Z" transform="translate(-1639.219 -258.214)" fill="#f7f6f0"/>
    </g>
    <g id="Group_4644" data-name="Group 4644" transform="translate(-13257.702 -21719.711)">
      <path id="Path_14506" data-name="Path 14506" d="M1538.519,378.176h83.873a7.943,7.943,0,0,1,7.943,7.943V423.8a7.944,7.944,0,0,1-7.943,7.944h-49.313l-20.426,20.425V431.745h-14.134a7.943,7.943,0,0,1-7.943-7.944V386.119A7.942,7.942,0,0,1,1538.519,378.176Z" transform="translate(-1530.576 -378.176)" fill="#ff51ab"/>
      <path id="Path_14507" data-name="Path 14507" d="M1627.995,393.94a2.149,2.149,0,0,0-1.963-2.295h-39.876a2.322,2.322,0,0,0,0,4.589h39.876A2.149,2.149,0,0,0,1627.995,393.94Zm-43.8,7.761a2.148,2.148,0,0,0,1.963,2.294h39.876a2.322,2.322,0,0,0,0-4.589h-39.876A2.148,2.148,0,0,0,1584.193,401.7Zm0,7.761h0a2.148,2.148,0,0,0,1.963,2.294h39.876a2.149,2.149,0,0,0,1.963-2.294h0a2.148,2.148,0,0,0-1.963-2.294h-39.876A2.147,2.147,0,0,0,1584.193,409.463Zm0,7.761a2.148,2.148,0,0,0,1.963,2.294h21.551a2.322,2.322,0,0,0,0-4.589h-21.551A2.148,2.148,0,0,0,1584.193,417.224Z" transform="translate(-1533.051 -378.798)" fill="#f7f6f0"/>
      <path id="Path_14508" data-name="Path 14508" d="M1570.384,401.393a113.437,113.437,0,0,1-22.4-8.212,8.7,8.7,0,0,0-8.506,8.886c.137,6.306,10.351,15.6,15.883,19.32C1560.887,417.311,1570.52,407.59,1570.384,401.393Z" transform="translate(-1530.987 -378.855)" fill="#fefefe"/>
    </g>
    <g id="Group_4645" data-name="Group 4645" transform="translate(-12977.719 -21778.479)">
      <path id="Path_14509" data-name="Path 14509" d="M1532.417,278.2h69.343a6.566,6.566,0,0,1,6.566,6.567v31.154a6.566,6.566,0,0,1-6.566,6.567H1560.99L1544.1,339.379V322.493h-11.686a6.566,6.566,0,0,1-6.566-6.567V284.772A6.566,6.566,0,0,1,1532.417,278.2Z" transform="translate(-1525.851 -278.205)" fill="#a954fe"/>
      <path id="Path_14510" data-name="Path 14510" d="M1606.392,291.237a1.776,1.776,0,0,0-1.624-1.9H1571.8a1.92,1.92,0,0,0,0,3.793h32.967A1.776,1.776,0,0,0,1606.392,291.237Zm-36.213,6.417a1.776,1.776,0,0,0,1.622,1.9h32.967a1.92,1.92,0,0,0,0-3.794H1571.8A1.775,1.775,0,0,0,1570.179,297.655Zm0,6.417h0a1.776,1.776,0,0,0,1.622,1.9h32.967a1.777,1.777,0,0,0,1.624-1.9h0a1.777,1.777,0,0,0-1.624-1.9H1571.8A1.776,1.776,0,0,0,1570.179,304.071Zm0,6.417a1.775,1.775,0,0,0,1.622,1.9h17.818a1.92,1.92,0,0,0,0-3.793H1571.8A1.775,1.775,0,0,0,1570.179,310.488Z" transform="translate(-1527.897 -278.719)" fill="#f7f6f0"/>
      <path id="Path_14511" data-name="Path 14511" d="M1558.762,297.4a93.887,93.887,0,0,1-18.523-6.789,7.191,7.191,0,0,0-7.033,7.347c.113,5.214,8.559,12.9,13.132,15.973C1550.91,310.56,1558.875,302.524,1558.762,297.4Z" transform="translate(-1526.191 -278.766)" fill="#fefefe"/>
    </g>
    <g id="Group_4646" data-name="Group 4646" transform="translate(-13007.19 -21708.982)">
      <path id="Path_14512" data-name="Path 14512" d="M667.766,291.161h48.15a4.559,4.559,0,0,1,4.559,4.559v21.633a4.559,4.559,0,0,1-4.559,4.56h-28.31L675.88,333.639V321.913h-8.115a4.559,4.559,0,0,1-4.559-4.56V295.721A4.559,4.559,0,0,1,667.766,291.161Z" transform="translate(-663.206 -291.161)" fill="#6161db"/>
      <path id="Path_14513" data-name="Path 14513" d="M702.681,303.614a1.233,1.233,0,0,0-1.127-1.317H678.662a1.333,1.333,0,0,0,0,2.634h22.891A1.234,1.234,0,0,0,702.681,303.614Zm-25.146,4.456a1.233,1.233,0,0,0,1.127,1.317h22.891a1.333,1.333,0,0,0,0-2.634H678.662A1.233,1.233,0,0,0,677.535,308.069Zm0,4.456h0a1.233,1.233,0,0,0,1.127,1.317h22.891a1.233,1.233,0,0,0,1.127-1.317h0a1.233,1.233,0,0,0-1.127-1.317H678.662A1.233,1.233,0,0,0,677.535,312.525Zm0,4.455a1.234,1.234,0,0,0,1.127,1.317h12.372a1.333,1.333,0,0,0,0-2.635H678.662A1.234,1.234,0,0,0,677.535,316.981Z" transform="translate(-668.044 -294.921)" fill="#f7f6f0"/>
    </g>
    <g id="Group_4648" data-name="Group 4648" transform="translate(-13053.956 -21822.854)">
      <path id="Path_14516" data-name="Path 14516" d="M1394.628,675.276a26.582,26.582,0,1,1-32.439-19A26.582,26.582,0,0,1,1394.628,675.276Z" transform="translate(-1342.323 -655.41)" fill="#7b16d4"/>
      <path id="Path_14517" data-name="Path 14517" d="M1376.681,667.952a5.372,5.372,0,1,0,6.555,3.838A5.373,5.373,0,0,0,1376.681,667.952Zm-20.881,5.458a5.372,5.372,0,1,0,6.556,3.838A5.371,5.371,0,0,0,1355.8,673.409Z" transform="translate(-1342.759 -655.98)" fill="#fff"/>
      <path id="Path_14518" data-name="Path 14518" d="M1358.249,692.276a13.342,13.342,0,0,0,25.685-6.713Z" transform="translate(-1343.057 -656.801)" fill="#fff"/>
    </g>
    <g id="Group_4649" data-name="Group 4649" transform="translate(-12868.239 -21706.568)">
      <circle id="Ellipse_3542" data-name="Ellipse 3542" cx="30.49" cy="30.49" r="30.49" transform="translate(0 21.885) rotate(-21.031)" fill="#e74392"/>
      <path id="Path_14519" data-name="Path 14519" d="M520.3,348.115a8.946,8.946,0,0,1,16.037-5.232,8.946,8.946,0,0,1,15.758,6.018c-.16,6.486-10.7,16.017-16.4,19.826C530.021,364.516,520.141,354.488,520.3,348.115Z" transform="translate(-495.44 -313.062)" fill="#fff"/>
    </g>
    <g id="Group_4652" data-name="Group 4652" transform="translate(-13452.683 -21825.289)">
      <g id="Group_4651" data-name="Group 4651" transform="translate(0 0)">
        <circle id="Ellipse_3544" data-name="Ellipse 3544" cx="40.514" cy="40.514" r="40.514" transform="translate(0 80.989) rotate(-88.24)" fill="#2435a9"/>
      </g>
      <path id="Path_14521" data-name="Path 14521" d="M1236.6,369.646l-9.891.109a3.244,3.244,0,0,0-3.21,3.28l.22,20.152A3.245,3.245,0,0,0,1227,396.4l9.89-.108a3.247,3.247,0,0,0,3.211-3.281l-.22-20.152A3.246,3.246,0,0,0,1236.6,369.646Zm33.795,1.793-9.588.1a3.246,3.246,0,0,1-3.274-3.476l.469-6.6a3.222,3.222,0,0,0-.078-.971l-1.863-7.944a3.246,3.246,0,0,0-3.2-2.5h0a3.247,3.247,0,0,0-3.211,3.281l.074,6.756a3.247,3.247,0,0,1-.606,1.924l-7.483,10.461a3.241,3.241,0,0,0-.606,1.924l.182,16.715a3.245,3.245,0,0,0,1.687,2.811l5.937,3.252a3.252,3.252,0,0,0,1.594.4l13.843-.152a3.245,3.245,0,0,0,3-2.1l6.22-16.478a3.233,3.233,0,0,0,.209-1.183l-.033-3.011A3.247,3.247,0,0,0,1270.4,371.439Z" transform="translate(-1205.42 -334.967)" fill="#fff"/>
    </g>
    <g id="Group_4654" data-name="Group 4654" transform="translate(-13004.014 -21657.428)">
      <g id="Group_4653" data-name="Group 4653" transform="translate(0 0)">
        <circle id="Ellipse_3545" data-name="Ellipse 3545" cx="24.311" cy="24.311" r="24.311" transform="translate(0 2.479) rotate(-2.922)" fill="#2435a9"/>
      </g>
      <path id="Path_14522" data-name="Path 14522" d="M585.057,223.555l-5.935.065a1.948,1.948,0,0,0-1.926,1.969l.132,12.092a1.948,1.948,0,0,0,1.969,1.927l5.934-.065a1.947,1.947,0,0,0,1.927-1.968l-.132-12.093A1.948,1.948,0,0,0,585.057,223.555Zm20.279,1.076-5.753.063a1.948,1.948,0,0,1-1.964-2.086l.281-3.96a1.935,1.935,0,0,0-.047-.583l-1.118-4.767a1.947,1.947,0,0,0-1.918-1.5h0a1.947,1.947,0,0,0-1.926,1.969l.044,4.054a1.951,1.951,0,0,1-.363,1.155l-4.49,6.277a1.946,1.946,0,0,0-.363,1.154l.109,10.03a1.949,1.949,0,0,0,1.013,1.687l3.563,1.951a1.939,1.939,0,0,0,.956.239l8.307-.091a1.947,1.947,0,0,0,1.8-1.259l3.732-9.888a1.936,1.936,0,0,0,.125-.709l-.019-1.808A1.948,1.948,0,0,0,605.336,224.631Z" transform="translate(-565.873 -202.272)" fill="#fff"/>
    </g>
    <g id="Group_4656" data-name="Group 4656" transform="translate(-12979.001 -21451.629)">
      <g id="Group_4655" data-name="Group 4655" transform="translate(0 0)">
        <circle id="Ellipse_3546" data-name="Ellipse 3546" cx="36.888" cy="36.888" r="36.888" transform="translate(0 40.013) rotate(-32.845)" fill="#2435a9"/>
      </g>
      <path id="Path_14523" data-name="Path 14523" d="M178.408,716.092l-9,.1a2.957,2.957,0,0,0-2.924,2.987l.2,18.348a2.955,2.955,0,0,0,2.987,2.923l9-.1a2.956,2.956,0,0,0,2.924-2.987l-.2-18.348A2.955,2.955,0,0,0,178.408,716.092Zm30.771,1.632-8.731.1a2.955,2.955,0,0,1-2.98-3.165l.426-6.008a2.965,2.965,0,0,0-.071-.884l-1.7-7.233a2.958,2.958,0,0,0-2.91-2.281h0a2.955,2.955,0,0,0-2.923,2.987l.067,6.151a2.95,2.95,0,0,1-.551,1.752L183,718.664a2.959,2.959,0,0,0-.551,1.752l.166,15.219a2.957,2.957,0,0,0,1.536,2.56l5.406,2.961a2.955,2.955,0,0,0,1.452.362l12.6-.137a2.958,2.958,0,0,0,2.733-1.912l5.663-15a2.94,2.94,0,0,0,.191-1.076l-.03-2.742A2.957,2.957,0,0,0,209.179,717.724Z" transform="translate(-137.023 -671.522)" fill="#fff"/>
    </g>
    <g id="Group_4657" data-name="Group 4657" transform="translate(-13369.205 -21931.846)">
      <circle id="Ellipse_3547" data-name="Ellipse 3547" cx="30.49" cy="30.49" r="30.49" transform="matrix(0.894, -0.448, 0.448, 0.894, 0, 27.308)" fill="#e74392"/>
      <path id="Path_14524" data-name="Path 14524" d="M455.725,815.831a8.947,8.947,0,0,1,16.037-5.232,8.946,8.946,0,0,1,15.759,6.018c-.16,6.487-10.7,16.018-16.4,19.827C465.448,832.232,455.568,822.2,455.725,815.831Z" transform="translate(-429.352 -779.264)" fill="#fff"/>
    </g>
    <g id="Group_4659" data-name="Group 4659" transform="translate(-12882.81 -21891.967)">
      <circle id="Ellipse_3547-2" data-name="Ellipse 3547" cx="30.49" cy="30.49" r="30.49" transform="matrix(0.894, -0.448, 0.448, 0.894, 0, 27.308)" fill="#e74392"/>
      <path id="Path_14524-2" data-name="Path 14524" d="M455.725,815.831a8.947,8.947,0,0,1,16.037-5.232,8.946,8.946,0,0,1,15.759,6.018c-.16,6.487-10.7,16.018-16.4,19.827C465.448,832.232,455.568,822.2,455.725,815.831Z" transform="translate(-429.352 -779.264)" fill="#fff"/>
    </g>
    <g id="Group_4660" data-name="Group 4660" transform="translate(-12763.477 -21968.768)">
      <circle id="Ellipse_3547-3" data-name="Ellipse 3547" cx="21.689" cy="21.689" r="21.689" transform="matrix(0.894, -0.448, 0.448, 0.894, 0, 19.425)" fill="#917ef4"/>
      <path id="Path_14524-3" data-name="Path 14524" d="M455.724,813.312a6.364,6.364,0,0,1,11.408-3.722,6.364,6.364,0,0,1,11.209,4.281c-.114,4.614-7.608,11.394-11.664,14.1C462.64,824.979,455.612,817.846,455.724,813.312Z" transform="translate(-436.965 -787.301)" fill="#fff"/>
    </g>
  </g>
</svg>
